<svg xmlns="http://www.w3.org/2000/svg" width="62" height="62" fill="none"><g clip-path="url(#a)"><path fill="url(#b)" d="M31.706.194c-12.643 0-16.341.013-17.06.073-2.594.215-4.209.624-5.968 1.5a12.09 12.09 0 0 0-3.48 2.548c-1.921 1.995-3.086 4.45-3.507 7.368-.205 1.416-.265 1.705-.277 8.94-.004 2.412 0 5.586 0 9.843 0 12.637.014 16.332.075 17.05.21 2.526.605 4.114 1.444 5.852 1.602 3.328 4.663 5.825 8.268 6.757 1.249.322 2.627.499 4.398.583.75.032 8.394.055 16.043.055 7.648 0 15.298-.009 16.029-.046 2.05-.097 3.24-.256 4.556-.597a12.68 12.68 0 0 0 8.268-6.77c.822-1.696 1.239-3.346 1.428-5.74.04-.521.058-8.842.058-17.151 0-8.311-.019-16.616-.06-17.138-.188-2.432-.607-4.068-1.455-5.796-.697-1.416-1.47-2.473-2.593-3.553C55.87 2.058 53.42.892 50.5.472 49.085.267 48.803.207 41.564.194h-9.858Z"/><path fill="url(#c)" d="M31.706.194c-12.643 0-16.341.013-17.06.073-2.594.215-4.209.624-5.968 1.5a12.09 12.09 0 0 0-3.48 2.548c-1.921 1.995-3.086 4.45-3.507 7.368-.205 1.416-.265 1.705-.277 8.94-.004 2.412 0 5.586 0 9.843 0 12.637.014 16.332.075 17.05.21 2.526.605 4.114 1.444 5.852 1.602 3.328 4.663 5.825 8.268 6.757 1.249.322 2.627.499 4.398.583.75.032 8.394.055 16.043.055 7.648 0 15.298-.009 16.029-.046 2.05-.097 3.24-.256 4.556-.597a12.68 12.68 0 0 0 8.268-6.77c.822-1.696 1.239-3.346 1.428-5.74.04-.521.058-8.842.058-17.151 0-8.311-.019-16.616-.06-17.138-.188-2.432-.607-4.068-1.455-5.796-.697-1.416-1.47-2.473-2.593-3.553C55.87 2.058 53.42.892 50.5.472 49.085.267 48.803.207 41.564.194h-9.858Z"/><path stroke="#fff" stroke-width="4.305" d="M31.697 39.918a9.622 9.622 0 1 0 0-19.244 9.622 9.622 0 0 0 0 19.244Z"/><path stroke="#fff" stroke-width="4.362" d="M40.97 9.99H22.423c-6.245 0-11.308 5.064-11.308 11.309v18.359c0 6.245 5.063 11.308 11.308 11.308H40.97c6.245 0 11.308-5.063 11.308-11.308v-18.36c0-6.244-5.063-11.307-11.308-11.307Z"/><path fill="#fff" d="M43.943 21.21a2.734 2.734 0 1 0 0-5.468 2.734 2.734 0 0 0 0 5.467Z"/></g><defs><radialGradient id="b" cx="0" cy="0" r="1" gradientTransform="matrix(0 -60.0276 55.8307 0 17.498 65.429)" gradientUnits="userSpaceOnUse"><stop stop-color="#FD5"/><stop offset=".1" stop-color="#FD5"/><stop offset=".5" stop-color="#FF543E"/><stop offset="1" stop-color="#C837AB"/></radialGradient><radialGradient id="c" cx="0" cy="0" r="1" gradientTransform="matrix(5.26654 26.311 -108.453 21.7213 -8.738 4.551)" gradientUnits="userSpaceOnUse"><stop stop-color="#3771C8"/><stop offset=".128" stop-color="#3771C8"/><stop offset="1" stop-color="#60F" stop-opacity="0"/></radialGradient><clipPath id="a"><path fill="#fff" d="M.806.806h60.57v60.57H.805z"/></clipPath></defs></svg>