<svg xmlns="http://www.w3.org/2000/svg" width="61" height="61" fill="none"><g clip-path="url(#a)"><rect width="60" height="60" x=".743" y=".577" fill="#fff" rx="5"/><path fill="#0A66C2" d="M51.865 51.7h-8.89V37.778c0-3.32-.059-7.594-4.623-7.594-4.63 0-5.34 3.617-5.34 7.352V51.7h-8.89V23.07h8.535v3.913h.12a9.353 9.353 0 0 1 8.42-4.625c9.01 0 10.672 5.927 10.672 13.637L51.865 51.7ZM14.092 19.155a5.16 5.16 0 1 1-.002-10.318 5.16 5.16 0 0 1 .002 10.318ZM18.537 51.7h-8.9V23.07h8.9V51.7ZM56.297.581H5.17A4.378 4.378 0 0 0 .743 4.906v51.34a4.382 4.382 0 0 0 4.427 4.33h51.128a4.391 4.391 0 0 0 4.445-4.33V4.903A4.388 4.388 0 0 0 56.298.577"/></g><defs><clipPath id="a"><rect width="60" height="60" x=".743" y=".577" fill="#fff" rx="5"/></clipPath></defs></svg>