<svg xmlns="http://www.w3.org/2000/svg" width="61" height="61" fill="none"><g fill-rule="evenodd" clip-path="url(#a)" clip-rule="evenodd"><path fill="#000" d="M.742 60.577h60v-60h-60v60Z"/><path fill="#25F4EE" d="M38.392 9.727c-.2-.85-.35-1.75-.35-2.65h-7.5v30.3c0 3.5-3 6.35-6.5 6.35s-6.3-2.8-6.3-6.3 2.85-6.35 6.35-6.35c.7 0 1.35.1 2 .3v-8.15c-.65-.1-1.3-.15-2-.15-7.95 0-14.35 6.4-14.35 14.35 0 7.9 6.4 14.35 14.35 14.35 7.8 0 14.3-6.25 14.5-14v-15.55c2.95 2 6.35 3.2 10.15 3.2v-7.7c-4.95 0-9.15-3.4-10.35-8Z"/><path fill="#fff" d="M40.892 12.227c-.2-.85-.35-1.75-.35-2.65h-7.5v30.3c0 3.5-3 6.35-6.5 6.35s-6.3-2.8-6.3-6.3 2.85-6.35 6.35-6.35c.7 0 1.35.1 2 .3v-8.15c-.65-.1-1.3-.15-2-.15-7.95 0-14.35 6.4-14.35 14.35 0 7.9 6.4 14.35 14.35 14.35 7.8 0 14.3-6.25 14.5-14v-15.55c2.95 2 6.35 3.2 10.15 3.2v-7.7c-4.95 0-9.15-3.4-10.35-8Z"/><path fill="#FE2C55" d="M38.392 9.577c0 .05.05.1.05.15a11 11 0 0 0 4.15 6.05c-.75-1.05-1.3-2.25-1.65-3.55-.2-.85-.35-1.75-.35-2.65h-2.2Zm10.35 10.35v5.45c-3.85 0-7.2-1.2-10.15-3.2v15.55c-.2 7.75-6.7 14-14.5 14-3.3 0-6.4-1.15-8.8-3 2.6 3.35 6.7 5.5 11.3 5.5 7.8 0 14.3-6.25 14.5-14v-15.5c2.95 2 6.35 3.2 10.15 3.2v-7.7c-.85 0-1.7-.1-2.5-.3Zm-22.65 5.65v5.8c-.65-.2-1.3-.3-2-.3-3.5 0-6.35 2.85-6.35 6.35 0 2.4 1.35 4.45 3.3 5.55a6.3 6.3 0 0 1-.8-3.05c0-3.5 2.85-6.35 6.35-6.35.7 0 1.35.1 2 .3v-8.15c-.65-.1-1.3-.15-2-.15h-.5Z"/></g><defs><clipPath id="a"><rect width="60" height="60" x=".742" y=".577" fill="#fff" rx="5.333"/></clipPath></defs></svg>