<svg xmlns="http://www.w3.org/2000/svg" width="72" height="51" fill="none"><g clip-path="url(#a)"><path fill="red" d="M70.216 7.844a8.99 8.99 0 0 0-6.345-6.345C58.28 0 35.856 0 35.856 0S13.432 0 7.844 1.499a8.99 8.99 0 0 0-6.345 6.345C0 13.432 0 25.1 0 25.1s0 11.668 1.499 17.256a8.99 8.99 0 0 0 6.345 6.345C13.432 50.2 35.857 50.2 35.857 50.2s22.425 0 28.014-1.499a8.99 8.99 0 0 0 6.345-6.345c1.498-5.588 1.498-17.256 1.498-17.256s0-11.668-1.498-17.256Z"/><path fill="#fff" d="M28.686 35.857 47.315 25.1l-18.63-10.757v21.514Z"/></g><defs><clipPath id="a"><path fill="#fff" d="M0 0h71.714v50.2H0z"/></clipPath></defs></svg>