<svg xmlns="http://www.w3.org/2000/svg" width="130" height="22" fill="none"><g clip-path="url(#a)"><g clip-path="url(#b)"><g fill="#fff" clip-path="url(#c)"><path d="M12.224 9.17v7.48h-2.009V9.519c0-2.277-1.348-3.623-3.571-3.602-2.128 0-3.642 1.52-3.666 3.161v7.572H.968V4.409H2.86v1.788c.805-1.161 2.319-2.045 4.297-2.045 3.2 0 5.067 1.976 5.067 5.017Zm8.688 5.9c2.033 0 3.169-.767 3.783-2.184l1.75 1.046c-.921 1.736-2.652 2.996-5.604 2.996-3.83 0-6.431-2.74-6.431-6.387 0-3.556 2.764-6.413 6.29-6.413 3.756 0 6.147 2.905 6.147 6.133 0 .35-.024.766-.046.998H16.439c.357 2.278 2.178 3.81 4.473 3.81Zm3.878-5.528c-.307-2.3-1.938-3.69-4.02-3.69s-3.925 1.372-4.305 3.69h8.325Zm15.182-5.133V16.65h-1.916v-1.736a5.043 5.043 0 0 1-1.834 1.49 5.138 5.138 0 0 1-2.325.502c-3.191 0-4.966-2.045-4.966-4.95V4.41h2.011v7.316c0 2.068 1.346 3.438 3.474 3.414 2.129-.024 3.525-1.485 3.55-3.039V4.41h2.006Zm8.407-.257v1.835c-2.272.024-3.857 1.535-3.857 3.276v7.38h-2.006V4.41h1.891v1.788a4.812 4.812 0 0 1 1.73-1.501 4.908 4.908 0 0 1 2.242-.544Zm42.188 1.794c-1.045-1.253-2.598-1.939-4.42-1.939-3.703 0-6.39 2.738-6.39 6.513a6.811 6.811 0 0 0 1.803 4.75 6.216 6.216 0 0 0 2.091 1.42c.79.327 1.64.49 2.496.48 1.81 0 3.366-.71 4.42-2.011v1.754h2.4V4.146h-2.4v1.8Zm-.07 4.572c0 2.58-1.69 4.385-4.109 4.385-2.342 0-4.108-1.887-4.108-4.385 0-2.5 1.768-4.362 4.108-4.362 2.418 0 4.109 1.793 4.109 4.362Zm15.021-4.483.024-.029v-1.86h-9.85v2.15h6.584l-6.915 8.824v1.79H105.8v-2.146h-7.148l6.866-8.73Zm8.133-2.174a6.504 6.504 0 0 0-2.534.506 6.408 6.408 0 0 0-2.125 1.448 6.704 6.704 0 0 0-1.898 4.72 6.664 6.664 0 0 0 1.856 4.743c1.216 1.229 2.935 1.906 4.843 1.906 2.773.006 4.746-1.049 5.852-3.12l.114-.217-2.236-1.341-.12.277c-.601 1.383-1.723 2.026-3.535 2.026a4.204 4.204 0 0 1-2.682-.904 4.073 4.073 0 0 1-1.467-2.383h10.279l.024-.236c.025-.237.049-.665.049-1.025a6.45 6.45 0 0 0-1.742-4.446 6.28 6.28 0 0 0-2.129-1.462 6.381 6.381 0 0 0-2.549-.492Zm-3.912 5.427c.185-.9.684-1.708 1.409-2.287a4.067 4.067 0 0 1 2.569-.882c1.891 0 3.335 1.24 3.708 3.17h-7.686Zm18.745-5.396a5.154 5.154 0 0 0-2.018.408 5.09 5.09 0 0 0-1.688 1.161V4.146h-2.431V16.91h2.541V9.263c0-1.67 1.579-2.994 3.591-3.014h.263V3.892h-.258Zm-72.556.288a6.49 6.49 0 0 0-3.556 1.066 6.321 6.321 0 0 0-2.356 2.826 6.193 6.193 0 0 0-.362 3.635 6.261 6.261 0 0 0 1.753 3.22 6.446 6.446 0 0 0 3.28 1.723 6.51 6.51 0 0 0 3.7-.356 6.386 6.386 0 0 0 2.876-2.314 6.198 6.198 0 0 0 .599-5.909 6.288 6.288 0 0 0-1.391-2.047 6.419 6.419 0 0 0-2.084-1.366 6.51 6.51 0 0 0-2.459-.478Zm0 10.877a4.7 4.7 0 0 1-2.575-.774 4.577 4.577 0 0 1-1.705-2.048 4.484 4.484 0 0 1-.26-2.633 4.534 4.534 0 0 1 1.273-2.332 4.667 4.667 0 0 1 2.377-1.244 4.719 4.719 0 0 1 2.68.26c.847.346 1.571.93 2.08 1.68.51.75.782 1.63.782 2.532a4.532 4.532 0 0 1-1.367 3.223 4.697 4.697 0 0 1-3.285 1.335ZM71.084 3.902a6.79 6.79 0 0 0-3.725 1.109 6.612 6.612 0 0 0-2.47 2.954 6.475 6.475 0 0 0-.382 3.805 6.55 6.55 0 0 0 1.834 3.372 6.742 6.742 0 0 0 3.432 1.802 6.82 6.82 0 0 0 3.873-.374 6.679 6.679 0 0 0 3.009-2.425 6.502 6.502 0 0 0 1.13-3.658c0-1.746-.706-3.42-1.963-4.655a6.764 6.764 0 0 0-4.738-1.93Zm0 10.716c-.83 0-1.642-.242-2.333-.695a4.142 4.142 0 0 1-1.546-1.851 4.056 4.056 0 0 1-.24-2.384c.163-.8.563-1.535 1.15-2.111a4.223 4.223 0 0 1 2.15-1.13 4.269 4.269 0 0 1 2.426.235 4.184 4.184 0 0 1 1.884 1.52c.462.678.708 1.475.708 2.291a4.088 4.088 0 0 1-1.23 2.917 4.238 4.238 0 0 1-2.969 1.208Zm4.208-11.056c.77 0 1.394-.613 1.394-1.37 0-.756-.624-1.37-1.394-1.37-.77 0-1.395.614-1.395 1.37 0 .757.625 1.37 1.395 1.37Zm-1.189 14.295a8.226 8.226 0 0 1-6.055 0h-2.606a6.656 6.656 0 0 0 2.426 2.223 6.79 6.79 0 0 0 3.215.807 6.797 6.797 0 0 0 3.215-.807 6.656 6.656 0 0 0 2.426-2.223h-2.621Z"/></g></g></g><defs><clipPath id="a"><path fill="#fff" d="M.95.058h128.455v21.069H.95z"/></clipPath><clipPath id="b"><path fill="#fff" d="M.95.058h128.455v21.069H.95z"/></clipPath><clipPath id="c"><path fill="#fff" d="M.969.058h128.418v21.069H.969z"/></clipPath></defs></svg>