<svg xmlns="http://www.w3.org/2000/svg" width="108" height="23" fill="none"><g clip-path="url(#a)"><g clip-path="url(#b)"><g fill="#fff" clip-path="url(#c)"><path d="M35.594 3.718c-1.123-.466-2.305-.786-3.37-.786-1.556 0-2.334.349-2.334.931 0 1.747 6.943.35 6.943 4.047 0 1.543-1.412 2.707-4.292 2.707-1.7 0-3.025-.35-4.552-1.194l.634-1.368c1.325.757 2.563 1.077 3.918 1.077 1.7 0 2.592-.495 2.592-1.222 0-1.893-6.943-.495-6.943-3.96 0-1.484 1.412-2.532 3.976-2.532 1.527 0 2.823.35 4.033.96l-.605 1.34Zm7.72 6.957c-2.765 0-5.07-1.863-5.07-4.658 0-2.765 2.305-4.657 5.07-4.657 2.795 0 5.042 1.892 5.042 4.657.029 2.795-2.247 4.658-5.041 4.658Zm0-7.802c-2.016 0-3.399 1.369-3.399 3.144 0 1.805 1.326 3.174 3.4 3.174s3.37-1.369 3.37-3.174c.03-1.775-1.296-3.144-3.37-3.144Zm11.668 7.802c-2.91 0-5.099-1.863-5.099-4.658 0-2.736 2.218-4.657 5.1-4.657 1.728 0 2.938.495 4.061 1.31l-.864 1.28c-.807-.61-1.815-1.077-3.14-1.077-2.132 0-3.457 1.369-3.457 3.115 0 1.805 1.325 3.144 3.457 3.144 1.325 0 2.391-.436 3.198-1.048l.864 1.281c-1.095.844-2.391 1.31-4.12 1.31Zm5.762-8.995h1.728v8.733h-1.728V1.68Zm4.033 8.733V1.68h8.066v1.455h-6.338v2.038h4.898V6.63h-4.898v2.329h6.626v1.455h-8.354Zm14.404-7.278v7.278h-1.728V3.135h-3.457V1.68h8.642v1.455h-3.457Zm4.897 7.278V1.68h7.779v1.455h-6.338v2.038h4.897V6.63H85.52v2.329h6.626v1.455h-8.067ZM32.944 20.835c.893 0 1.872-.204 2.448-.524v-2.62h1.729v3.464c-1.152.757-2.68 1.194-4.177 1.194-2.91 0-5.128-1.863-5.128-4.658 0-2.736 2.218-4.629 5.099-4.629 1.67 0 2.938.466 4.033 1.31l-.864 1.281a5.027 5.027 0 0 0-3.14-1.048c-2.132-.058-3.457 1.34-3.457 3.086 0 1.863 1.325 3.144 3.457 3.144Zm6.194 1.223v-8.734h8.066v1.456h-6.338v2.038h4.898v1.455h-4.898v2.33h6.626v1.455h-8.354Zm11.235 0h-1.44v-8.734h1.641l5.676 6.638c-.087-1.66-.144-2.999-.144-4.309v-2.329h1.728v8.734h-1.728l-5.647-6.58-.086.03c.057 1.31 0 3.61 0 4.337v2.213Zm9.795 0v-8.734h7.778v1.456h-6.338v2.038h4.898v1.455h-4.898v2.33h6.626v1.455h-8.066Zm14-3.203h-2.477v3.203h-1.729v-8.734h5.59c1.843 0 2.995 1.165 2.995 2.824 0 1.572-1.123 2.474-2.506 2.678l2.593 3.26h-2.017l-2.449-3.23Zm1.21-1.455c1.009 0 1.585-.524 1.585-1.281 0-.844-.49-1.34-1.412-1.34h-3.86v2.62h3.687Zm6.569 2.62-1.009 2.038h-1.757l4.235-8.734h1.7l4.234 8.734h-1.728l-1.009-2.038h-4.666Zm.662-1.456h3.342l-1.67-3.551-1.672 3.551Zm8.095 3.494v-8.734h1.44v7.278h5.762v1.456h-7.202Zm8.355 0v-8.734h8.066v1.456h-6.338v2.038h4.897v1.455h-4.897v2.33h6.627v1.455h-8.355Z"/><path fill-rule="evenodd" d="M21.85 1.389H.82v20.96h21.03V1.39Zm-3.746 9.898H4.564v1.164h13.54v-1.164Z" clip-rule="evenodd"/></g></g></g><defs><clipPath id="a"><path fill="#fff" d="M.786.577H108v22.03H.786z"/></clipPath><clipPath id="b"><path fill="#fff" d="M.786.577H108v22.03H.786z"/></clipPath><clipPath id="c"><path fill="#fff" d="M.82.577h107.145v22.03H.82z"/></clipPath></defs></svg>