<svg xmlns="http://www.w3.org/2000/svg" width="99" height="18" fill="none"><g clip-path="url(#a)"><g fill="#fff" clip-path="url(#b)"><path d="M3.812 3.338h2.402c.887 0 1.984 0 2.61.84.21.261.366.629.418 1.363 0 1.312-.522 2.099-1.827 2.308-.366.053-.627.053-1.306.053H3.812V3.338ZM0 .505v15.214h3.812v-4.984H6.37c2.193-.053 4.334-.157 5.744-2.203.835-1.207.888-2.519.888-3.043 0-1.522-.523-2.624-.836-3.096-.261-.367-.522-.63-.679-.734C10.34.662 8.981.505 7.52.452L0 .505Zm17.074 10.072c.365-1.259.783-2.518 1.148-3.777.262-.892.47-1.784.731-2.676l1.985 6.453h-3.864ZM20.99.504h-3.968l-5.64 15.215h4.02l.732-2.413h5.691l.731 2.413h4.02L20.99.504Zm10.548 0 3.29 5.614a164.29 164.29 0 0 1 2.297 4.145L36.97.504h3.655V15.72h-3.708l-2.82-4.827a33.749 33.749 0 0 1-1.357-2.308c-.47-.787-.835-1.627-1.305-2.414l.104 9.601h-3.655V.557l3.655-.053Zm22.087 0v2.99h-3.916V15.72h-3.812V3.495h-3.968V.505h11.696ZM65.06 8.479c-.052 1.207-.365 2.413-1.2 3.358a3.731 3.731 0 0 1-2.611 1.154c-.992 0-1.88-.367-2.559-1.102-.626-.682-1.253-1.784-1.253-3.882 0-1.627.522-3.515 2.037-4.355.26-.157.835-.42 1.67-.42.262 0 .836 0 1.462.263a3.644 3.644 0 0 1 1.462 1.154c.47.63 1.045 1.941.993 3.83Zm.94 6.138c1.88-1.521 2.872-4.04 2.872-6.348 0-2.099-.835-4.564-2.297-6.086-.783-.84-2.559-2.098-5.43-2.098-3.499 0-5.274 1.94-6.058 3.095-1.305 1.941-1.462 4.145-1.462 4.932 0 .892.105 3.777 2.194 5.98 1.931 2.047 4.438 2.204 5.378 2.204 2.506-.105 3.968-.997 4.803-1.679ZM74.406.504l3.29 5.614c.783 1.364 1.567 2.78 2.298 4.145L79.837.504h3.655V15.72h-3.707l-2.82-4.827c-.47-.734-.94-1.521-1.358-2.308-.47-.787-.835-1.627-1.305-2.414l.104 9.601h-3.655V.557l3.655-.053Zm22.766 0v2.938h-7.414v2.78h6.945v2.886h-6.945v3.62h8.093v2.99H85.946V.505h11.227Z"/></g></g><defs><clipPath id="a"><path fill="#fff" d="M0-.005h98.111V17.19H0z"/></clipPath><clipPath id="b"><path fill="#fff" d="M0-.005h98.111V17.19H0z"/></clipPath></defs></svg>