<svg xmlns="http://www.w3.org/2000/svg" width="125" height="37" fill="none"><circle cx="16.913" cy="18.779" r="15.308" stroke="#fff" stroke-width="2.24"/><path stroke="#fff" stroke-width="2.24" d="M27.738 7.954c1.502 1.503 1.967 4.039 1.158 7.186-.802 3.118-2.82 6.62-5.91 9.711-3.092 3.091-6.594 5.11-9.713 5.911-3.146.81-5.682.343-7.184-1.159-1.502-1.502-1.968-4.038-1.16-7.185.803-3.118 2.82-6.62 5.912-9.711 3.09-3.091 6.593-5.11 9.711-5.911 3.147-.81 5.684-.344 7.186 1.158Z"/><path stroke="#fff" stroke-width="2.24" d="M6.089 7.954c1.502-1.502 4.038-1.967 7.185-1.158 3.118.802 6.62 2.82 9.711 5.911 3.091 3.091 5.11 6.593 5.911 9.712.81 3.146.343 5.682-1.158 7.184-1.502 1.502-4.039 1.968-7.185 1.16-3.119-.803-6.621-2.82-9.712-5.912-3.091-3.09-5.109-6.593-5.91-9.711-.81-3.147-.344-5.684 1.158-7.186Z"/><path fill="#fff" d="M47.418 26.239c3.517 0 5.892-1.837 5.892-4.772 0-6.205-8.244-3.562-8.244-6.832 0-.919.829-1.546 2.15-1.546 1.502 0 2.442.806 2.554 2.038h3.204c-.09-2.98-2.375-4.928-5.757-4.928-3.181 0-5.422 1.837-5.422 4.435 0 6.161 8.132 3.809 8.132 6.878 0 1.187-1.008 1.815-2.509 1.815-1.658 0-2.71-1.009-2.845-2.6h-3.226c.135 3.339 2.51 5.512 6.071 5.512Zm6.654 4.391h3.114v-5.578c.605.761 1.702 1.187 2.98 1.187 3.248 0 5.443-2.308 5.443-5.825 0-3.517-2.016-5.824-5.175-5.824-1.456 0-2.576.537-3.248 1.411v-1.232h-3.114v15.86Zm5.712-7.08c-1.68 0-2.777-1.254-2.777-3.136 0-1.904 1.097-3.158 2.778-3.158 1.635 0 2.755 1.254 2.755 3.158 0 1.882-1.12 3.137-2.755 3.137Zm6.579 2.51h3.114v-6.183c0-1.456.963-2.51 2.33-2.51 1.299 0 2.195.986 2.195 2.353v6.34h3.114v-7.035c0-2.598-1.658-4.435-4.19-4.435-1.568 0-2.8.65-3.45 1.747V9.863h-3.113V26.06Zm19.464-3.831c-.247.963-1.076 1.456-2.33 1.456-1.568 0-2.576-.986-2.8-2.576h8.11a11 11 0 0 0 .044-1.008c0-2.577-1.59-5.511-5.578-5.511-3.831 0-5.578 2.934-5.578 5.802 0 2.845 1.971 5.847 5.802 5.847 2.778 0 4.928-1.568 5.376-4.01h-3.046Zm-2.554-5.354c1.5 0 2.374 1.008 2.464 2.262h-4.996c.27-1.568 1.12-2.262 2.532-2.262Zm13.745.493v-2.6H95.41c-1.367 0-2.218.471-2.823 1.883v-1.882h-3.136v11.29h3.136v-5.488c0-1.927.695-3.203 2.24-3.203h2.19Zm10.753-2.599h-3.136v6.183c0 1.434-.964 2.509-2.33 2.509-1.277 0-2.173-.986-2.173-2.352v-6.34h-3.114v7.034c0 2.576 1.657 4.436 4.189 4.436 1.546 0 2.8-.672 3.428-1.748v1.569h3.136V14.769Zm1.344 11.291h3.114V9.863h-3.114V26.06Zm12.004-3.831c-.246.963-1.075 1.456-2.33 1.456-1.568 0-2.576-.986-2.8-2.576h8.11c.022-.247.045-.583.045-1.008 0-2.577-1.591-5.511-5.579-5.511-3.83 0-5.578 2.934-5.578 5.802 0 2.845 1.972 5.847 5.802 5.847 2.778 0 4.929-1.568 5.377-4.01h-3.047Zm-2.554-5.354c1.501 0 2.375 1.008 2.465 2.262h-4.996c.269-1.568 1.12-2.262 2.531-2.262Z"/></svg>