<svg xmlns="http://www.w3.org/2000/svg" width="154" height="155" fill="none"><path fill="#000" d="M113.829 52.548c-.613-1.86-1.76-5.491-2.692-7.525a3.42 3.42 0 0 0-3.097-2.278 3.669 3.669 0 0 0-2.717 1.22c-1.158 1.31-1.352 2.622-2.406 5.19-.461 1.127-.942 2.245-1.346 3.393a.326.326 0 0 0 .23.397c.077.02-.506-.045 11.717.011a.33.33 0 0 0 .316-.262.316.316 0 0 0-.005-.146Zm-5.28-6.488a2.023 2.023 0 0 1 .439 3.583 2.015 2.015 0 0 1-1.831.209 2.02 2.02 0 0 1 1.392-3.795v.003ZM82.88 42.574c-.243-1.765-.718-3.581-2.38-4.517a4.431 4.431 0 0 0-4.341-.039c-2.679 1.506-2.774 5.602-2.57 8.67.09 1.34.174 2.68.293 4.018 4.326-.13 6.368-.259 9.505-.274-.054-2.257-.2-5.626-.508-7.858Zm-4.327 3.485c-2 .52-3.58-2.527-2.22-4.84a1.988 1.988 0 0 1 2.555-.939c2.13.998 1.91 5.192-.335 5.776v.003Zm18.9-9.086a14.232 14.232 0 0 0-.521-1.705.886.886 0 0 0-.33-.56.33.33 0 0 0-.441.116 12.019 12.019 0 0 0-.597 2.158.318.318 0 0 0 .279.399c.447.05.897.046 1.342-.013a.314.314 0 0 0 .274-.261.318.318 0 0 0-.006-.134Zm1.193-14.62a4.412 4.412 0 0 0-.7-1.96c-1.02-1.375-2.853-.708-2.64.645.067.323.183.634.347.921-1.161-.58-2.772-.747-3.28.41-.356.812.271 1.39.93 1.74.03.015 1.899 1.051 2.214 1.234.86.5 1.69 1.047 2.487 1.642a.309.309 0 0 0 .485-.126c.03-.046.044-.1.042-.154.305-1.431.344-2.907.115-4.352ZM36.715 61.974a6.603 6.603 0 0 0-12.312 2.563c-3.376-.545-7.066-.012-9.754 2.22-2.515 2.088-3.963 5.65-2.848 8.818a10.214 10.214 0 0 0 2.838 4.188c-3.784.099-7.596 1.664-9.602 5.029-3.278 5.489.642 12.529 8.224 13.335 2.138-7.59 6.676-19.565 13.54-23.532a11.669 11.669 0 0 1 7.656-1.534c1.652-2.959 3.925-8.112 2.258-11.087ZM31.67 67.61a2.179 2.179 0 1 1-.83-4.278 2.179 2.179 0 0 1 .83 4.278Zm72.28 35.182c.06.409.68.236.621-.171a10.123 10.123 0 0 1 1.682-7.177c.235-.343-.324-.666-.557-.325a10.795 10.795 0 0 0-1.746 7.673Zm-2.384 1.36a.336.336 0 0 0 .151.195.324.324 0 0 0 .47-.366 11.503 11.503 0 0 1 2.528-10.794c.281-.307-.175-.762-.456-.456a12.033 12.033 0 0 0-2.693 11.421ZM98.987 56.99v-6.713a.322.322 0 0 0-.645 0v6.713a.322.322 0 1 0 .645 0Zm-6.043 5.91V51.084a.323.323 0 0 0-.645 0V62.9a.323.323 0 1 0 .645 0Zm-73.49-23.334h12.853a.323.323 0 0 0 0-.645H19.454a.322.322 0 1 0 0 .645ZM32.08 41.28l-6.331 6.33a.322.322 0 1 0 .456.456l6.327-6.33a.321.321 0 0 0-.104-.526.322.322 0 0 0-.351.07h.003Zm.418-4.374-5.852-5.851a.322.322 0 0 0-.455.456 241.078 241.078 0 0 0 5.85 5.85.324.324 0 0 0 .526-.104.324.324 0 0 0-.07-.351Zm110.999 6.649a3.89 3.89 0 0 1 2.172 2.465c.342 1.416.416 2.884.218 4.328-.033.413.614.411.644 0a11.35 11.35 0 0 0-.321-4.723 4.419 4.419 0 0 0-2.542-2.691c-.388-.148-.56.483-.171.621Zm5.982 4.449a6.696 6.696 0 0 0-4.703-7.501.322.322 0 0 0-.172.621 6.045 6.045 0 0 1 4.253 6.709c-.067.406.552.58.622.17Zm-130.96 59.042a.324.324 0 0 0 .322-.322.324.324 0 0 0-.322-.322c-2.201-.021-12.937-.039-13.964-.065a.32.32 0 0 0-.228.551c.06.06.142.094.228.094 3.333.101 11.499.127 13.964.064ZM27.293 110H22.46a.322.322 0 0 0-.124.62c.04.016.082.024.124.024h4.834a.324.324 0 0 0 .323-.322.321.321 0 0 0-.323-.322Zm3.939-8.058H26.04a.326.326 0 0 0-.298.446.325.325 0 0 0 .174.175c.04.016.081.024.123.024h5.193a.324.324 0 0 0 .322-.322.321.321 0 0 0-.322-.323Zm101.604-48.597a7.06 7.06 0 0 0-1.358.984 4.495 4.495 0 0 0-2.349-3.05c-.369-.186-.697.372-.325.557a3.87 3.87 0 0 1 2.116 2.984c.043.349.567.412.726.241.44-.464.952-.855 1.516-1.158.363-.204.036-.76-.326-.558Z"/><path fill="#000" d="M82.308 16.717a38.272 38.272 0 0 0-10.851 1.502c-2.55.762-7.921 2.29-7.921 2.29a4.992 4.992 0 0 0-4.297 3.975 37.68 37.68 0 0 0-9.844 2.753c-2.796 1.347-5.65 2.834-7.78 5.14-2.79 3.024-3.942 7.205-3.942 11.253 0 4.381 1.544 7.88 3.93 10.205 3.286 3.074 10.117 6.274 17.408 6.905v30.062a29.761 29.761 0 0 1-4.882-2.938c-6.474-4.702-8.936-8.714-13.898-12.19a14.941 14.941 0 0 0-5.688-2.654c1.657-2.986 3.898-8.084 2.22-11.073a6.676 6.676 0 0 0-12.408 2.528c-3.376-.531-7.058.013-9.744 2.245-2.527 2.099-3.935 5.67-2.862 8.87a10.472 10.472 0 0 0 2.768 4.125c-7.478.26-11.402 5.63-10.566 10.567.72 3.939 4.039 7.314 9.244 7.892-.63 2.245-1.256 4.738-1.988 8.203-2.218-.02-4.436-.051-6.654-.093a.374.374 0 0 0-.376.376.374.374 0 0 0 .376.376c2.42.062 7.298.101 6.496.096-.198.959-2.644 13.295-2.552 13.753-.112.172-2.665 13.358-3.386 17.066-.092.473.632.675.725.2.334-1.721 3.131-15.998 3.34-16.956 5.984 0 43.086.026 46.389.026.69 1.584 6.207 16.855 6.234 16.933.158.454.885.259.725-.2-1.607-4.618-9.696-26.553-10.14-27.728a33.498 33.498 0 0 0 6.631 1.381c0 4.987-.1 6.982.537 8.842a4.802 4.802 0 0 0 2.632 2.892c2.253 1.006 4.843.925 7.262.925h61.625c3.099 0 7.557.523 9.068-2.942.539-1.517.764-3.129.659-4.736V57.934a1.196 1.196 0 0 0 .915-1.286 2.528 2.528 0 0 0-.634-1.409c-.084-.099-.186-.183-.28-.274v-4.67c.992-.724 2.004-1.698 1.705-2.944a1.642 1.642 0 0 0-1.705-1.078v-23.14a6.816 6.816 0 0 0-1.013-3.9 6.32 6.32 0 0 0-4.757-2.436c-1.201-.116 3.731.15-52.721-.08ZM62.456 21.59a7.598 7.598 0 0 1 2.9-.498c1.296-.005 29.903 0 29.903 0 .058.264.153.518.284.754-1.177-.547-2.723-.637-3.223.5-.351.8.215 1.385.864 1.754H86.3a.378.378 0 0 0-.36.376.378.378 0 0 0 .36.376h8.254c3.083 1.724 3.201 2.149 3.543 2.233a.362.362 0 0 0 .456-.25c.158-.65.25-1.314.274-1.983h4.124a.378.378 0 0 0 .255-.636.377.377 0 0 0-.255-.116h-4.114a9.779 9.779 0 0 0-.456-3.007c24.329 0 24.101-.11 26.146.353a5.229 5.229 0 0 1 3.087 1.688c.92 1.354.977 2.591 1.005 4.273H97.804a2.54 2.54 0 0 0-3.4 0h-20.9c1.305-.552 1.392-2.079.318-2.575a6.54 6.54 0 0 0-1.424-.425c-3.74-.719-6.607-.921-12.357-.054a4.16 4.16 0 0 1 2.415-2.762v-.001Zm34.317 1.062c-.263-.473-.5-.96-.71-1.458-.153-.396-.06-.798.414-.865a1.089 1.089 0 0 1 .963.56c.233.392.39.822.465 1.272.208 1.302.221 2.63.037 3.936-3.606-2.541-4.906-2.609-4.978-3.215-.047-.384.384-.63.706-.675a3.588 3.588 0 0 1 2.513.902.378.378 0 0 0 .592-.457h-.002Zm26.47 27.888a12.453 12.453 0 0 0 2.302 2.723c.079.232.131.474.154.718a86.27 86.27 0 0 1 1.714 13.803c.029.247.023.496-.017.742-1.95-3.349-5.898-7.523-8.919-9.95a18.758 18.758 0 0 0-6.644-3.124l-1.224-2.446h2.911a.386.386 0 0 0 .295-.15.371.371 0 0 0 .07-.156.375.375 0 0 0-.003-.17c-.645-1.959-1.765-5.508-2.698-7.537a3.466 3.466 0 0 0-3.146-2.306 3.747 3.747 0 0 0-2.205.739c-1.458-2.916-1.672-3.42-2.161-4.203a17.852 17.852 0 0 0-2.78-4.009 6.92 6.92 0 0 0-4.781-2.015c-3.558.041-6.495 4.098-8.494 7.037-1.555 2.287-2.916 4.45-4.312 6.7-.077-1.462-.178-2.927-.376-4.38-.247-1.775-.728-3.605-2.401-4.549a4.44 4.44 0 0 0-4.722.186 1.43 1.43 0 0 0 .307-1.828c-.956-1.208-4.192-1.877-5.69-2.251l-.031-.058c1.98-.016 4.162.026 5.745-.619 1.408-.608 2.13-2.385 1.005-3.53a3.535 3.535 0 0 0-1.688-.82c-2.479-.497-6.292-.844-6.292-.844s5.233-.083 24.648-.083a2.727 2.727 0 0 0 .082 2.54 2.588 2.588 0 0 0 4.684-.611 2.586 2.586 0 0 0-.183-1.929s29.416.041 30.23.01c.004 1.202-.026 14.807-.03 16.564-1.543-1.227-3.77-.153-4.987 1.408a3.73 3.73 0 0 0-.363 4.398Zm4.534 11.998h8.542a30.69 30.69 0 0 1-.545 11.039c-1.374 5.038-7.443 5.76-11.998 3.038a30.902 30.902 0 0 1-5.064-3.724c-.368-.307-.903.22-.532.531a33.021 33.021 0 0 0 4.809 3.607.344.344 0 0 0 .22.042v3.65H97.127c.032-.277.055-1.393-.033-6.54a.369.369 0 0 0-.119-.262.377.377 0 0 0-.523.01.384.384 0 0 0-.114.253v6.539c-1.338 0-6.1-.012-6.388-.007-.052-3.246-.098-6.494-.14-9.744a23.88 23.88 0 0 1 7.198-11.01 14.864 14.864 0 0 1 8.568-3.951 53.78 53.78 0 0 0 1.954 5.305c.139.319.596.187.69-.09.58-1.772 1.084-3.569 1.625-5.353 1.533.15 3.03.549 4.434 1.182a14.795 14.795 0 0 1 3.464 1.893 45.856 45.856 0 0 1 6.539 6.487 23.844 23.844 0 0 1 2.709 3.894.37.37 0 0 0 .424.173 1.207 1.207 0 0 0 .751-1.103c.031-1.42-.258-4.596-.39-5.859h.001Zm.772 16.377v1.804h-4.585v-3.153c1.42.76 2.98 1.218 4.584 1.349h.001Zm-27.96-42.931a18.333 18.333 0 0 1 2.438 3.619c.342.547.444.767 2.233 4.347-1.181 1.375-1.347 2.64-2.393 5.188-.46 1.125-.941 2.244-1.346 3.392a.38.38 0 0 0 .27.46c.076.02-.455.013 7.979.013l1.116 2.234a21.068 21.068 0 0 0-8.997.84c-4.634 1.82-9.533 6.384-12.109 12.81-.19-13.734-.011-15.242-1.522-17.332a3.063 3.063 0 0 0-1.348-.95c-.93-.268-1.35-.24-3.468-.23a98.85 98.85 0 0 0-.076-2.107c1.77-2.885 3.572-5.755 5.51-8.534a21.418 21.418 0 0 1 3.262-3.88 6.495 6.495 0 0 0 8.451.13Zm-7.837-.642a5.78 5.78 0 0 1 3.363-1.39 6.016 6.016 0 0 1 3.919 1.5 6.108 6.108 0 0 1-2.552 1.172c-.173-.654-.4-1.293-.68-1.91a.42.42 0 0 0-.702 0 12.512 12.512 0 0 0-.559 1.93 5.63 5.63 0 0 1-2.79-1.302h.001Zm14.91 8.123a2.468 2.468 0 0 1 1.722.359c.489.392.874.899 1.119 1.475.825 1.874 1.882 4.997 2.503 6.955h-10.582c.637-1.714 1.404-3.376 2.01-5.102.559-1.593 1.335-3.404 3.226-3.687h.002Zm1.398 12.369c-.421 1.39-.823 2.787-1.255 4.174a52.898 52.898 0 0 1-1.458-4.088 32.527 32.527 0 0 1 2.711-.086h.002ZM62.668 44.61a1.405 1.405 0 0 0 2.114.077c1.151-1.055 1.221-3.727 1.12-5.28 2.131.088 4.267.024 6.388-.192l1.427 2.685c-.442 2.257-.172 5.567.11 8.747-3.813.116-10.297.303-14.052-.276.01-2.186.04-9.102.042-10.373.844-.13 1.598-.196 2.532-.294l-.058 2.726a3.347 3.347 0 0 0 .377 2.18Zm10.409-5.516a7.468 7.468 0 0 0 2.444-.677 5.398 5.398 0 0 0-1.527 2.403l-.917-1.726Zm1.204 4.243a6.521 6.521 0 0 1 1.5-4.14 3.644 3.644 0 0 1 5.567.593c.49.92.782 1.93.86 2.97.291 2.148.427 5.452.482 7.616-2.635.033-4.952.154-8.115.253a48.48 48.48 0 0 1-.294-7.292Zm19.994-13.986a1.84 1.84 0 0 1 2.176-1.806 1.863 1.863 0 0 1 1.503 1.81 1.833 1.833 0 0 1-.507 1.36 1.837 1.837 0 0 1-2.668-.003 1.847 1.847 0 0 1-.504-1.361Zm-52.919 4.497c1.826-2.42 4.467-3.972 7.126-5.32a32.274 32.274 0 0 1 9.754-3.117c4.649-.851 9.43-1.335 14.217-.22.44.044.86.198 1.224.449.306.306.053.763-.246.966-.47.244-.985.388-1.514.423l-5.388.927a.376.376 0 0 0 .1.738c9.01 1.134 8.575 1.011 9.458 1.389a1.312 1.312 0 0 1 .86 1.244c-.35 2.443-4.336 1.812-9.49 2.06a.378.378 0 0 0-.1.739c4.559 1.133 5.985 1.358 7.619 2.248.27.153.626.362.604.72a.954.954 0 0 1-.537.737c-2.275.979-7.09.844-9.53.818a.383.383 0 0 0-.376.376 15.084 15.084 0 0 1-.06 3.08c-.11.784-.486 2.177-1.293 2.277-.827.102-.756-1.178-.745-1.688l.07-3.409a.377.377 0 0 0-.375-.376c-1.751.1-3.487.376-5.182.826a6.486 6.486 0 0 0-4.663 5.217H38.483c-.272-3.815.558-7.98 2.873-11.104Zm17.708 6.281c0 .668-.028 7.39-.043 10.082a3.862 3.862 0 0 1-.886-.26c-1.535-.637-3.256-1.415-4.071-2.79a3.318 3.318 0 0 1-.464-1.825c.12-2.323 1.936-4.588 5.467-5.207h-.003Zm-7.018 18.474c-3.727-1.167-9.002-3.676-11.247-6.856a13.273 13.273 0 0 1-2.242-6.038h14.308a4.281 4.281 0 0 0 1.517 2.977 11.733 11.733 0 0 0 6.646 2.592c7.175.717 20.94-.405 24.755-.128a2.63 2.63 0 0 1 1.705.672c1.235 1.273 1.293 3.565 1.355 5.37.053 1.529.295 19.712.354 23.527h-4.77V67.264a.376.376 0 1 0-.752 0V80.72c-1.739 0-17.215-.008-17.403-.01 0-5.328.073-18.987.077-20.486a.377.377 0 0 0-.376-.376c-4.678.597-9.43.172-13.927-1.245Zm13.547 2.038c0 5.317-.072 18.702-.072 20.078-5.876 0-4.964-.04-5.755-.01v-19.91c1.943.121 3.893.069 5.827-.157ZM4.988 91.315c-1.27-3.662.577-7.442 3.88-9.334a12.39 12.39 0 0 1 6.608-1.52.379.379 0 0 0 .337-.236.383.383 0 0 0-.071-.406 11.247 11.247 0 0 1-3.025-3.806c-1.88-4.212.997-9.38 6.221-10.618a13.256 13.256 0 0 1 5.654-.122.383.383 0 0 0 .476-.363 5.927 5.927 0 0 1 11.049-2.583c.448.93.605 1.972.452 2.992a21.474 21.474 0 0 1-2.825 7.592c-2.434-.17-4.863.4-6.966 1.639-6.628 3.778-11.3 15.554-13.37 22.892-3.663-.374-7.202-2.506-8.42-6.127Zm46.874 17.954a.374.374 0 0 0-.36.1.371.371 0 0 0-.1.36c1.348 3.558 2.67 7.128 3.883 10.735-5.916 0-42.75-.027-45.986-.027.46-2.916 1.93-10.454 2.527-13.307 1.201.005 5.666-.015 6.697-.032a.373.373 0 0 0 .363-.383.37.37 0 0 0-.363-.369c-2.18-.02-4.358.043-6.537.036 1.81-8.53 4.183-16.88 8.777-24.38a22.881 22.881 0 0 1 4.823-5.728 11.87 11.87 0 0 1 6.247-2.603 10 10 0 0 1 6.656 1.765c4.518 2.691 7.713 6.889 11.879 10.408 4.786 4.018 10.14 7.81 16.452 7.29v17.59a32.344 32.344 0 0 1-14.958-1.455Zm7.903 2.401c6.85.568 11.985-.862 17.505-3.904.159.829.363 1.649.614 2.455a1.43 1.43 0 0 0 1.806.909c1.71-.567 1.464-2.752 1.436-4.398l-.023-1.163c.269.487.556.963.862 1.428.46.691 1.203 1.239 2.051.844.89-.416 1.08-1.438 1.091-2.322a29.255 29.255 0 0 0-.508-5.703 16.743 16.743 0 0 0 2.373 1.597c.407.257.865.422 1.343.484a1.997 1.997 0 0 0 1.704-2.948c-3.23-4.62-9.654-8.193-15.604-8.016a11.34 11.34 0 0 0 .45-3.69c.012-1.304-.916-2.54-2.139-2.173-1.397.42-1.232 2.087-3.231 5.163a5.292 5.292 0 0 1-2.387 2.136 14.865 14.865 0 0 1-7.346-1.227c0-6.621.023-9.08.029-9.568.006.158.004-.062 0-.096.69 0 67.944.044 68.751.01-.006 5.682.013 32.487.022 33.747 0 0-67.988-.043-68.8-.009-.002-1.189 0-2.371.001-3.556Zm14.15-19.975c5.873-.407 12.137 3.044 15.456 7.627a1.2 1.2 0 0 1-1.52 1.688 14.544 14.544 0 0 1-3.553-2.466.384.384 0 0 0-.629.366c.488 2.245.717 4.539.683 6.837.022.694-.345 1.602-1.09 1.453a1.413 1.413 0 0 1-.691-.651c-.546-.844-1.022-1.748-1.528-2.619a.377.377 0 0 0-.477-.144.376.376 0 0 0-.223.333c-.046 3.643.316 5.179-.402 5.98-.49.547-1.21.422-1.368-.17-.207-.614-.113-.622-.691-2.828a.363.363 0 0 0-.18-.229.395.395 0 0 0-.29-.031c-.295.084-4.617 2.858-9.847 3.765V92.969c1.653-.735 2.713-2.407 3.505-3.965.22-.433.434-.87.624-1.318.346-.818.794-2.037 1.534-1.929.532.077.785.67.848 1.134a10.408 10.408 0 0 1-.527 4.328.38.38 0 0 0 .366.476Zm45.004 31.818s-51.856 0-53.514-.142c-4.876-.544-5.568-2.581-5.63-7.389 0 0 67.98.011 68.8 0a14.192 14.192 0 0 1-.274 3.944 4.05 4.05 0 0 1-2.336 2.692c-2.172.999-4.703.895-7.045.895h-.001Zm21.091-5.349c-.077 1.389-.286 2.954-1.312 3.99-1.254 1.264-3.254 1.361-4.922 1.361h-8.041a5.299 5.299 0 0 0 2.542-1.778c1.187-1.611 1.068-3.98 1.045-6.13 0 0-.023-35.953-.021-36.676a8.636 8.636 0 0 0 3.672-.828c3.426-1.688 3.967-5.178 4.26-8.95a35.087 35.087 0 0 0-.214-7.038c-.004-.03-.004-.024-.009-.053a23.22 23.22 0 0 0-1.523-5.28c1.101.3 2.68.62 3.759.955.261.087.528.157.799.207-.001 4.113.135 57.101-.035 60.22Zm1.764-70.614c.406 1.688-4.021 3.65-6.598 5.276a.377.377 0 0 0-.176.3.388.388 0 0 0 .141.318c.064.052.143.08.224.083a8.785 8.785 0 0 1 4.757 1.829c.287.226.522.51.691.834.174.366.282.953-.259 1.03-.43.006-.855-.08-1.249-.25-1.388-.413-3.063-.707-4.411-1.15-.333-.11-.56.276-.424.551a20.085 20.085 0 0 1 1.732 5.413h-8.508a90.266 90.266 0 0 0-.749-5.277c-.217-1.242-.623-3.283-.684-3.497-.153-.371-.3-.322-1.207-1.304-.991-1.07-1.952-2.44-1.472-3.96a4.039 4.039 0 0 1 1.213-1.764 3.69 3.69 0 0 1 2.156-1.014c1.788-.077 2.253 1.896.751 2.262-1.732.544-1.37 2.635.153 3.258 1.34.549 3.571.707 4.26-.878a2.072 2.072 0 0 0-.283-1.937 3.652 3.652 0 0 1-.828-1.7 1.551 1.551 0 0 1 1.166-1.415c2.045-.401 3.731 2.313 2.282 5.019-.215.402-.441.798-.682 1.183-.258.412.387.784.649.38.56-.889 4.81-3.417 5.79-3.933.487-.26 1.367-.319 1.568.343h-.003Zm-1.731 3.266v3.538a11.207 11.207 0 0 0-3.534-1.45c1.27-.74 2.29-1.258 3.536-2.088h-.002Zm-11.438-3.187-.011.009-.004 2.325c-.826-.142-1.621-.969-1.167-1.705.26-.34.771-.349 1.184-.629h-.002Zm11.256-26.317c.158.683.218 1.384.176 2.083.033 2.295.006 7.882.006 23.057a48.62 48.62 0 0 0-4.648 2.873c1.263-3.046-1.028-6.225-3.538-5.455a2.335 2.335 0 0 0-1.535 1.567 2.487 2.487 0 0 0 .476 2.034c.32.497.865 1.118.66 1.757-.265.817-1.259.968-2.118.874.006-3.134.044-21.804.04-22.312-.015-2.286-.216-4.792-2.325-6.151-1.968-1.268-4.567-1.295-6.828-1.295H97.975c-.82-1.07-2.233-.946-2.642 0 0 0-28.077-.005-28.47-.012 5.568-1.607 9.138-2.877 14.99-2.861h47.777c3.622-.004 9.184-.69 10.233 3.837l-.002.004Z"/><path fill="#000" d="M76.286 71.645a1.928 1.928 0 0 0 2.455-1.054 4.17 4.17 0 0 0 .27-1.542 124.883 124.883 0 0 0-1.501-15.744.373.373 0 0 0-.733-.056 84.538 84.538 0 0 0-2.259 12.177 15.24 15.24 0 0 0-.135 3.81 2.997 2.997 0 0 0 1.903 2.41Zm-1.051-5.919a82.472 82.472 0 0 1 1.812-10.462 119.121 119.121 0 0 1 1.207 13.862c-.016.827-.265 1.919-1.298 1.889a2.062 2.062 0 0 1-1.807-1.757 11.14 11.14 0 0 1 .086-3.532Zm57.733-23.509a1.969 1.969 0 0 0 2.057 1.159 1.798 1.798 0 0 0 1.611-1.846s.028-11.315 0-12.096a2.507 2.507 0 0 0-.361-1.276 1.843 1.843 0 0 0-1.368-.84 1.851 1.851 0 0 0-2.008 1.516c-.087.699-.054-.866-.054 11.734a4.494 4.494 0 0 0 .123 1.65Zm1.97.416a1.158 1.158 0 0 1-1.345-1.103c-.006-.261 0 .976 0-5.535h2.291v5.535a1.053 1.053 0 0 1-.948 1.103h.002Zm.946-13.099c-.008.75 0 5.709 0 5.709h-2.292v-5.678c-.163-1.953 2.311-2.092 2.292-.03ZM108.23 62.983a.376.376 0 0 0-.362-.269.381.381 0 0 0-.363.269l-2.354 8.581a.789.789 0 0 0 .102.614l2.235 4.44a.372.372 0 0 0 .324.184.376.376 0 0 0 .325-.183c.41-.87 1.837-3.644 2.106-4.177.406-.807.383-.292-.35-3.094l-1.663-6.365Zm-.417 12.61-1.933-3.843 1.979-7.212 1.887 7.22-1.933 3.835ZM78.568 46.108c2.28-.593 2.515-4.857.348-5.877a2.052 2.052 0 0 0-2.629.962c-1.376 2.408.25 5.443 2.281 4.915Zm-.17-5.274c.925.262 1.269 1.423 1.279 2.27-.026 2.245-1.86 3.077-2.776 1.473-1.007-1.872.186-4.115 1.496-3.744Zm28.159 8.726a2.072 2.072 0 0 0 2.549.06c.246-.183.448-.418.591-.689a2.08 2.08 0 0 0 .126-1.677 2.08 2.08 0 0 0-2.007-1.374 2.07 2.07 0 0 0-1.93 1.478 2.064 2.064 0 0 0 .671 2.202Zm1.311-2.925a1.325 1.325 0 0 1 1.222.816 1.322 1.322 0 1 1-2.543.506 1.334 1.334 0 0 1 1.321-1.322Zm-76.242 91.793a.383.383 0 0 0 .375-.376l1.339-10.54 3.683 10.64c.158.454.884.259.726-.2-2.872-8.3-4.04-11.669-4.213-12.175a.38.38 0 0 0-.412-.27.376.376 0 0 0-.327.369l-1.545 12.176a.38.38 0 0 0 .374.376Zm18.79-30.023a38.673 38.673 0 0 1-19.758-17.652c-.23-.423-.884-.044-.65.38 4.471 8.1 11.586 14.736 20.209 17.997.453.171.648-.555.2-.725Zm2.56-2.628a17.861 17.861 0 0 1-3.687-1.348c-.432-.216-.814.432-.38.649a18.749 18.749 0 0 0 3.867 1.424c.473.116.67-.609.2-.725ZM31.684 67.663a2.23 2.23 0 1 0-2.347-1.043 2.256 2.256 0 0 0 2.347 1.043Zm-1.3-3.352a1.457 1.457 0 0 1 2.332 1.427 1.474 1.474 0 1 1-2.332-1.427Zm70.281 46.166a13.923 13.923 0 0 0 11.547 2.923 13.911 13.911 0 0 0 5.586-2.459 13.918 13.918 0 0 0 3.999-4.611A13.927 13.927 0 0 0 98.78 90.88a13.937 13.937 0 0 0 1.885 19.597Zm-.254-20.26a13.176 13.176 0 0 1 10.683-3.56 13.167 13.167 0 0 1 11.49 11.426 13.163 13.163 0 0 1-8.294 13.921 13.166 13.166 0 0 1-17.94-12.562 13.174 13.174 0 0 1 4.059-9.228l.002.003Z"/><path fill="#000" d="M104.526 108.872a7.417 7.417 0 0 0 3.19.818 4.094 4.094 0 0 0 2.301-.92 6.576 6.576 0 0 0 1.569-2.379 32.144 32.144 0 0 0 3.176-12.572c.026-.606.045-1.22.022-1.826a2.289 2.289 0 0 0-1.551-2.102 3.408 3.408 0 0 0-1.519-.054.391.391 0 0 0-.362.277c-.537 1.966-.96 3.959-1.405 5.948a.394.394 0 0 0 .262.46c.366.12.728.256 1.096.373a66.53 66.53 0 0 1-2.01 7.078l-.537-.159a.372.372 0 0 0-.366.097c-1.304 1.48-2.699 2.878-4.032 4.334a.382.382 0 0 0-.089.359c.017.063.048.12.092.167a.39.39 0 0 0 .163.101Zm4.252-4.269c.189.072.384.126.583.164a.383.383 0 0 0 .156.036.373.373 0 0 0 .29-.12.372.372 0 0 0 .085-.136 64.848 64.848 0 0 0 2.225-7.806.379.379 0 0 0-.263-.46 15.18 15.18 0 0 1-1.105-.364c.37-1.8.793-3.588 1.269-5.363a1.59 1.59 0 0 1 1.891.888c.102.233.145.488.127.742a31.133 31.133 0 0 1-2.791 13.173c-.206.453-.434.895-.649 1.344a6.239 6.239 0 0 1-.659 1.102 3.316 3.316 0 0 1-1.918 1.099 4.904 4.904 0 0 1-2.748-.537c1.149-1.272 2.365-2.483 3.507-3.762Zm-4.879-1.799a.38.38 0 0 0 .46.263.382.382 0 0 0 .263-.461 10.1 10.1 0 0 1 1.676-7.135c.275-.4-.376-.777-.649-.38a10.86 10.86 0 0 0-1.75 7.713Zm-1.912 1.612a.38.38 0 0 0 .253-.447 11.429 11.429 0 0 1 2.514-10.742c.328-.355-.203-.888-.532-.531a12.101 12.101 0 0 0-2.707 11.472.376.376 0 0 0 .472.248Zm-8.529 12.747a2.586 2.586 0 0 0-2.079 2.712c.027.415.155.818.371 1.174a2.619 2.619 0 0 0 2.716 1.194 2.583 2.583 0 0 0 2.036-2.034 2.588 2.588 0 0 0-3.044-3.046Zm2.088 3.479a1.833 1.833 0 0 1-2.111.827 1.857 1.857 0 0 1-.704-.396 1.854 1.854 0 0 1-.608-1.453 1.847 1.847 0 0 1 .736-1.392 1.842 1.842 0 0 1 2.687 2.414ZM79.83 101.569c.272.397.92.021.65-.384a13.012 13.012 0 0 0-1.481-1.8c-.34-.345-.872.186-.531.532.503.508.958 1.061 1.362 1.652Zm2.858-4.259c.367.307.901-.219.53-.532a55.84 55.84 0 0 0-1.517-1.238.384.384 0 0 0-.532 0 .37.37 0 0 0-.11.267.369.369 0 0 0 .11.265 63.39 63.39 0 0 1 1.519 1.238Zm15.99-39.955a.378.378 0 0 0 .363-.364v-6.713a.376.376 0 1 0-.752 0v6.713a.374.374 0 0 0 .39.364Zm-6.042 5.908a.373.373 0 0 0 .362-.362V51.085a.377.377 0 0 0-.636-.255.374.374 0 0 0-.115.255v11.816a.368.368 0 0 0 .12.262.373.373 0 0 0 .27.1Zm39.303 13.705 2.148-1.611a.386.386 0 0 0 .135-.515.378.378 0 0 0-.514-.134l-2.149 1.61a.385.385 0 0 0-.135.515.384.384 0 0 0 .229.175.374.374 0 0 0 .286-.04ZM60.687 32.777a6.396 6.396 0 0 1 3.469 1.304 4.723 4.723 0 0 1 1.908 2.662c.116.47.844.271.726-.2a5.63 5.63 0 0 0-2.19-3.068 8.261 8.261 0 0 0-2.746-1.305 5.849 5.849 0 0 0 1.836-2.055c.23-.427-.421-.807-.649-.38a5.19 5.19 0 0 1-2.544 2.334c-.358.162-.155.706.19.708ZM41.426 39.15a.376.376 0 0 0-.363.363v1.611a.376.376 0 0 0 .752 0v-1.61a.376.376 0 0 0-.389-.364Zm-22.335.107a.377.377 0 0 0 .363.364h12.854a.377.377 0 0 0 0-.752H19.454a.376.376 0 0 0-.363.388Zm12.951 1.985-6.331 6.331a.377.377 0 0 0 .532.532l6.331-6.33a.374.374 0 0 0 0-.533.376.376 0 0 0-.532 0Zm-.038-3.842a.377.377 0 0 0 .614-.122.376.376 0 0 0-.082-.41l-5.851-5.852a.376.376 0 0 0-.532.532 245.507 245.507 0 0 0 5.851 5.852Zm111.475 6.208a3.833 3.833 0 0 1 2.135 2.427 11.62 11.62 0 0 1 .216 4.313c-.038.483.714.48.752 0a11.433 11.433 0 0 0-.322-4.737 4.565 4.565 0 0 0-2.581-2.729c-.453-.163-.65.563-.2.726Zm6.053 4.413a6.758 6.758 0 0 0-4.742-7.567.374.374 0 0 0-.462.263.376.376 0 0 0 .263.462 6.014 6.014 0 0 1 4.216 6.642c-.087.47.638.674.725.2ZM27.293 109.946h-4.834a.374.374 0 0 0-.376.376.378.378 0 0 0 .376.376h4.834a.378.378 0 0 0 .376-.376.375.375 0 0 0-.376-.376Zm3.939-8.057H26.04a.374.374 0 0 0-.376.376.374.374 0 0 0 .375.376h5.193a.38.38 0 0 0 .348-.521.379.379 0 0 0-.203-.203.357.357 0 0 0-.145-.028Zm101.577-48.59c-.466.259-.902.57-1.3.925a4.543 4.543 0 0 0-2.353-2.992c-.432-.217-.813.431-.38.649a3.818 3.818 0 0 1 2.09 2.938.369.369 0 0 0 .136.282.374.374 0 0 0 .304.08c.418.178.391-.41 1.883-1.236.423-.232.044-.882-.38-.646Z"/></svg>