<svg xmlns="http://www.w3.org/2000/svg" width="154" height="155" fill="none"><path fill="#000" d="m28.355 94.767-3.342 5.229c.12-3.292.384-20.793-.012-43.752a.307.307 0 0 0-.614 0v43.874l-3.34-5.351c-.208-.336-.74-.027-.53.31 1.183 1.897 3.766 6.035 3.872 6.208a.315.315 0 0 0 .266.148.315.315 0 0 0 .265-.148c1.141-1.825 3.806-5.951 3.97-6.207.21-.33-.323-.644-.535-.31Zm86.288-42.788-.823.623a4.983 4.983 0 0 0-.271-.267 1.128 1.128 0 0 0-1.759.076 1.873 1.873 0 0 0-.112 1.818l-1.107.84a7.441 7.441 0 0 1-.667-.979c-.185-.35-.713-.04-.531.311.198.371.433.721.702 1.043l-.916.691c-.311.238-.005.767.311.532l.987-.748c1.019 1.326 2.808.384 1.966-1.49l1.3-.986c.186.238.346.495.476.767.168.358.696.046.531-.31a4.573 4.573 0 0 0-.503-.838l.726-.55c.311-.238.005-.773-.31-.533Zm-1.777.614c.176.098.335.225.47.375l-1.145.87c-.213-.632.081-1.453.673-1.245h.002Zm-.932 3.197c-.218.299-.639.119-.844-.095-.048-.05-.093-.1-.137-.153l.974-.738a1.166 1.166 0 0 1 .007.986Zm-46.603-2.07a4.307 4.307 0 0 0-.39-.384l.172-.242c.226-.326-.306-.635-.53-.31l-.142.203a1.32 1.32 0 0 0-1.995.998c.046.39.23.752.515 1.022-.27.359-.541.71-.798 1.037a14.144 14.144 0 0 1-.566-.424c-.307-.244-.746.188-.435.434.195.153.408.324.614.476l-.12.147c-.248.307.184.743.435.435l.198-.243c.137.077.28.145.428.2a1.28 1.28 0 0 0 1.59-.632c.103-.253.17-.666-.553-1.458.307-.41.574-.787.823-1.138.113.1.22.205.32.317.263.291.697-.145.434-.439Zm-1.583 2.33c.083.35-.548.661-1.067.328.25-.316.481-.613.696-.9.164.16.29.356.37.572Zm-.415-1.538c-.219-.269-.38-.572-.154-.814a.763.763 0 0 1 .892-.191c-.227.314-.478.653-.738 1.005Zm36.822 19.029a2.24 2.24 0 0 0-.89-.635c-.099-.056-.2-.111-.3-.165l.179-1.011c.258.02.537.054.792.086.392.047.389-.568 0-.614-.21-.025-.455-.061-.683-.089l.109-.614c.068-.383-.524-.552-.594-.163l-.132.746a2.107 2.107 0 0 0-.47.07.918.918 0 0 0-.613 1.304.92.92 0 0 0 .375.394c.113.071.242.14.358.209-.077.426-.153.855-.22 1.247a1.478 1.478 0 0 1-.64-.46c-.246-.312-.679.127-.436.434.25.307.588.528.968.636-.097.546-.166.934-.176.997-.07.384.524.553.593.163l.19-1.074a1.94 1.94 0 0 0 1.402-.56.751.751 0 0 0 .188-.9Zm-1.951-1.246a.313.313 0 0 1-.03-.47.314.314 0 0 1 .155-.083.927.927 0 0 1 .197-.04l-.126.71c-.063-.038-.14-.074-.196-.117Zm1.328 1.711c-.23.227-.536.364-.86.384l.179-1.008c.132.076.287.16.413.23.107.044.208.104.298.177.081.095.06.117-.03.217ZM25.217 35.465a39.854 39.854 0 0 0-.06-.993c.4.019.793.124 1.15.306a.308.308 0 0 0 .312-.531 3.511 3.511 0 0 0-1.511-.384c-.02-.236-.043-.468-.068-.695-.042-.389-.657-.394-.614 0 .024.225.047.453.068.68-.585.01-1.402.096-1.7.627-.257.46.007 1.035 1.831 1.468.016.428.026.857.027 1.285a3.125 3.125 0 0 1-1.433-.792.306.306 0 0 0-.524.217.308.308 0 0 0 .09.217 3.42 3.42 0 0 0 1.864.97c0 .238-.008.476-.015.712a.307.307 0 1 0 .614 0c.008-.231.012-.464.014-.698.697-.096 1.514-.537 1.507-1.305-.005-.675-.824-.912-1.552-1.084Zm-1.269-.358c-.088-.034-.601-.236-.598-.345.006-.223.901-.291 1.191-.307.021.279.039.56.053.844a5.224 5.224 0 0 1-.646-.192Zm1.673 2.038a1.596 1.596 0 0 1-.356.096c0-.379-.01-.76-.022-1.139.244.057.482.138.709.243.472.228-.035.672-.33.8Zm37.076 77.12-3.32 5.188c.126-2.908.434-16.51-.028-43.466a.308.308 0 0 0-.524-.217.307.307 0 0 0-.09.217v43.641l-3.347-5.366c-.21-.335-.742-.027-.532.307l3.873 6.207a.313.313 0 0 0 .53 0l3.97-6.207c.212-.328-.32-.64-.532-.304Zm32.813 9.311-3.348 5.236v-24.626a.314.314 0 0 0-.09-.217.31.31 0 0 0-.217-.09.31.31 0 0 0-.307.307v24.759l-3.347-5.365c-.209-.335-.741-.026-.531.311 1.183 1.896 3.766 6.034 3.872 6.207.03.043.069.079.115.104a.327.327 0 0 0 .301 0 .329.329 0 0 0 .115-.104l3.97-6.207c.212-.339-.32-.648-.533-.315Zm52.228 10.034c-7.366-.128-14.118 0-21.463 0 0-1.578-.005-2.974-.019-3.794a.307.307 0 1 0-.614 0v3.794H4.182a.31.31 0 0 0-.307.307.305.305 0 0 0 .306.307H125.64v7.891l-3.347-5.366c-.21-.335-.741-.026-.532.311l3.873 6.207a.314.314 0 0 0 .266.142.315.315 0 0 0 .265-.142l3.969-6.207c.214-.335-.318-.643-.531-.311l-3.347 5.235c0-1.573.015-4.954.017-7.76h21.465a.307.307 0 1 0 0-.614h.001Z"/><path fill="#000" d="M114.447 136.778a190.246 190.246 0 0 1-10.453 3.515c-.378.114-.217.708.164.593a190.52 190.52 0 0 0 10.453-3.514c.368-.136.209-.732-.164-.594Zm-6.516 9.033 7.009-6.663c.288-.273-.148-.707-.435-.435l-7.009 6.663c-.288.274.151.708.435.435Zm37.806-1.529-8.154-5.033c-.338-.209-.648.323-.311.531l8.155 5.035c.338.207.647-.326.31-.533Zm2.005-4.534a211.147 211.147 0 0 1-9.911-2.735.307.307 0 1 0-.163.593c3.275 1.01 6.58 1.922 9.91 2.735a.309.309 0 0 0 .234-.028.318.318 0 0 0 .145-.186.314.314 0 0 0-.108-.325.309.309 0 0 0-.107-.054ZM45.529 64.55h28.13a.359.359 0 1 0 0-.718h-28.13a.36.36 0 0 0 0 .718Zm33.193 28.198h28.027a.357.357 0 0 0 .359-.36.356.356 0 0 0-.359-.358H78.722a.359.359 0 1 0 0 .718Zm0-3.332h28.027a.365.365 0 0 0 .343-.359.362.362 0 0 0-.343-.358H78.722a.357.357 0 0 0-.243.606.363.363 0 0 0 .243.111Zm0-3.332h28.027a.36.36 0 0 0 .243-.607.356.356 0 0 0-.243-.11H78.722a.357.357 0 0 0-.243.605.36.36 0 0 0 .243.112Zm33.457 34.607h28.028a.361.361 0 0 0 .338-.427.365.365 0 0 0-.338-.291h-28.028a.362.362 0 0 0-.342.359c0 .092.036.181.099.248a.362.362 0 0 0 .243.111ZM83.2 77.944c6.825 5.841 16.144 6.112 23.727 2.39.415-.203.052-.822-.362-.62-6.238 3.069-13.998 3.396-20.409-.492a21.071 21.071 0 0 1-2.16-1.535 6.032 6.032 0 0 1-1.604-1.876c-.193-.42-.82-.05-.62.362a5.6 5.6 0 0 0 1.428 1.771Z"/><path fill="#000" d="M39.034 31.532H11.006a.364.364 0 0 0-.358.36v10.254a.364.364 0 0 0 .358.358h25.201a81.9 81.9 0 0 0-1.15 1.846H11.104a.36.36 0 0 0 0 .717h23.529c-.307.525-.61 1.053-.906 1.584-16.922 0-21.335-.024-22.504.008-.21.006-.583-.005-.576.351 0 0-.03 85.76-.008 86.548H4.183a.356.356 0 0 0-.359.359.36.36 0 0 0 .36.359H125.59v7.659l-3.252-5.212c-.243-.391-.865-.031-.619.362l3.872 6.208a.4.4 0 0 0 .401.165.389.389 0 0 0 .307-.304l3.881-6.069c.25-.39-.371-.751-.62-.362l-3.252 5.086v-7.531s18.178.058 21.431 0a.36.36 0 0 0 .359-.359.36.36 0 0 0-.359-.359h-7.084c1.025-4.522 3.995-8.392 6.539-12.167 1.151-1.703 2.582-3.599 2.408-5.773a3.938 3.938 0 0 0-1.995-3.283c-1.82-.886-3.931.53-5.464 1.841 1.711-2.494 3.4-5.011 4.881-7.63 1.904-3.366 3.25-7.534 1.628-11.29-1.393-3.222-4.806-4.91-8.192-5.032-3.873-.143-7.434 1.803-10.366 4.166a46.546 46.546 0 0 0-6.296 6.194 114.84 114.84 0 0 0 4.557-9.432c.907-2.127 1.87-4.433 1.376-6.789a4.506 4.506 0 0 0-3.784-3.753c-1.918-.23-3.567.653-4.987 1.827 1.243-2.275 2.329-4.798 2.003-7.32-.403-3.117-2.874-5.623-6.155-4.938a6.47 6.47 0 0 0-2.108.863 171.458 171.458 0 0 0 11.295-17.368c3.27-5.867 5.717-13.12 1.851-19.32a9.875 9.875 0 0 0-6.757-4.775c-3.564-.518-7.077 1.247-10.112 2.91-11.662 6.39-19.943 17.455-26.925 28.764.754-2.893.653-5.96-1.246-8.48-2.685-3.567-8.67-4.11-13.027-.092-.222-.052-.446-.098-.666-.159a82.12 82.12 0 0 0 4.66-16.988c.378-2.81.41-5.824-.783-8.457a8.623 8.623 0 0 0-6.484-4.872c-9.656-1.688-21.117 7.75-27.11 15.753v-6.069a.364.364 0 0 0-.363-.359Zm-27.67 10.255v-9.538h27.31v9.538h-27.31Zm27.31 91.773h-27.31V47.37h27.31v86.19Zm8.008 0c-.252 0-.53-.028-.795-.023V66.909h27.311c0 8.643.097 61.868.097 66.651H46.682Zm59.706 0s-27.046-.011-27.31-.008V95.286h27.31v38.274Zm33.461 0h-13.54v-3.743a.358.358 0 0 0-.359-.342.359.359 0 0 0-.359.342v3.743s-12.789-.011-13.052-.008v-10.828c3.529 0 25.366.042 27.31.043v10.793ZM76.881 53.557c-.94 2.148-1.918 4.282-2.672 6.498-9.5 2.41-18.736-2.072-23.537-9.842A73.802 73.802 0 0 1 57.847 44a17.562 17.562 0 0 0 19.034 9.558Zm-16.703-30.25c7.774-2.038 12.572 1.452 13.058 7.789.244 3.186-.454 6.362-1.187 9.442-.949 4-2.158 7.933-3.619 11.775a16.9 16.9 0 0 1-10.145-9.049.357.357 0 0 0-.492-.128 75.48 75.48 0 0 0-7.834 6.77.366.366 0 0 0-.056.435A21.844 21.844 0 0 0 74.15 60.81c.177-.02.35-.066.512-.138.239-.147.307-.639.4-.892 1.178-3.26 2.793-6.426 2.762-6.698a.345.345 0 0 0-.272-.353.34.34 0 0 0-.16.006 17.103 17.103 0 0 1-6.718.135c4.854-4.269 12.834-2.588 13.098 5.064a13.79 13.79 0 0 1-1.974 7.031.359.359 0 1 0 .62.363c6.765-11.376 14.479-22.942 25.749-30.313 2.847-1.862 6.038-3.749 9.378-4.527a8.495 8.495 0 0 1 8.498 2.66 12.535 12.535 0 0 1 3.11 8.08c.058 3.723-1.289 7.315-2.971 10.579-3.264 6.336-10.093 16.25-14.404 21.993-.243.323.307.752.564.436 1.35-1.67 3.04-3.308 5.31-3.453a4.237 4.237 0 0 1 4.192 2.856c1.453 3.606-.927 7.483-2.698 10.523a.359.359 0 0 0 .096.459.362.362 0 0 0 .468-.024c1.565-1.542 3.329-3.299 5.678-3.299 2.263 0 3.634 1.938 3.759 4.048.132 2.313-1.015 4.575-1.918 6.635a113.988 113.988 0 0 1-6.856 13.166c-.241.398.365.744.62.362a50.78 50.78 0 0 1 7.954-9.172c2.762-2.532 6.117-4.926 9.954-5.338 3.212-.343 6.868.775 8.634 3.647 2.159 3.511.892 7.877-.941 11.216-1.293 2.356-3.395 5.424-7.772 11.919-.225.333.312.759.563.435a23.875 23.875 0 0 1 3.146-3.435c1.15-1.003 2.628-2.153 4.238-1.978 1.831.414 2.405 2.603 1.989 4.227-.523 2.038-2.054 3.823-3.214 5.535-1.863 2.752-3.836 5.602-4.975 8.753v-8.911a.363.363 0 0 0-.359-.359c-21.953 0-26.792-.088-27.916-.03-.337.017-.443.023-.46.422-.03.655-.01 2.915-.01 11.119h-4.715V94.924a.367.367 0 0 0-.359-.359c-30.114-.2-28.087-.059-28.28.107-.166.175-.107-2.572-.107 38.888h-4.35c0-8.643-.097-62.107-.097-67.01a.363.363 0 0 0-.36-.358c-30.072-.23-28.109-.049-28.255.088-.207.153-.131-.92-.131 67.28h-5.776V47.01a.365.365 0 0 0-.359-.359h-4.483c.3-.53.606-1.059.92-1.584h3.323a.36.36 0 0 0 0-.717H35.9c.38-.622.767-1.237 1.164-1.846h1.972a.326.326 0 0 0 .23-.088c.181-.14.131 0 .131-3.265 5.068-6.9 12.564-13.693 20.78-15.845Z"/><path fill="#000" d="M115.16 62.2c.389-.005.691 0 .921-.263a50.46 50.46 0 0 1 5.782-4.821.36.36 0 0 0 .144-.19.362.362 0 0 0-.151-.425.366.366 0 0 0-.231-.056 5.431 5.431 0 0 1-4.427-2.484c-1.669-2.432-1.349-6.102-.383-8.852.099-.283-.196-.483-.442-.441a61.287 61.287 0 0 0-8.219 1.98c-.273.12-.344.475-.438.739a13.823 13.823 0 0 0-.059 9.257c1.289 3.072 4.272 5.592 7.503 5.556Zm-6.63-14.915a61.009 61.009 0 0 1 7.419-1.81 13.305 13.305 0 0 0-.516 5.885 6.764 6.764 0 0 0 5.26 5.731 65.628 65.628 0 0 0-5.151 4.37c-3.542.25-6.781-2.83-7.632-6.392-.554-2.6-.339-5.305.62-7.784ZM96.955 78.098c4.378-.182 10.421-3.882 12.939-6.766l.017-.032a.318.318 0 0 0 .039-.403c-2.565-3.922-2.509-4.04-2.833-4.563a.364.364 0 0 0-.491-.129 31.795 31.795 0 0 1-3.405 2.026 9.469 9.469 0 0 1-2.502.92 5.35 5.35 0 0 1-5.511-2.608.369.369 0 0 0-.264-.172.36.36 0 0 0-.3.1c-1.841 1.798-4.228 2.916-6.515 4.03a.351.351 0 0 0-.178.307c.188 4.57 4.51 7.569 9.004 7.29Zm-2.153-10.81a6.04 6.04 0 0 0 5.371 2.628 7.183 7.183 0 0 0 2.788-.767 26.578 26.578 0 0 0 3.739-2.13l2.49 4.02a23.636 23.636 0 0 1-7.668 5.165c-3.218 1.484-6.617 1.74-9.674-.08a6.677 6.677 0 0 1-3.168-5.098 25.535 25.535 0 0 0 6.122-3.737v-.002Zm-70.46 34.023c.05.082.131.141.225.164a.368.368 0 0 0 .274-.044c.105-.064-.142.297 4.09-6.328.25-.39-.372-.75-.62-.362l-3.26 5.1V56.244a.359.359 0 0 0-.718 0V99.94l-3.244-5.199c-.244-.39-.865-.03-.62.362 4.238 6.79 3.029 4.84 3.873 6.208Zm36.784-45.22c.187.15.38.301.576.447a1.558 1.558 0 0 0-.077.103c-.29.355.215.866.507.507.059-.07.112-.145.17-.216.131.07.267.133.407.186a1.331 1.331 0 0 0 1.653-.668c.223-.554-.197-1.068-.537-1.474l.767-1.062c.1.092.194.187.275.276.307.345.815-.163.508-.506a4.476 4.476 0 0 0-.359-.358c.049-.07.1-.137.15-.207.263-.384-.36-.74-.62-.361l-.117.16a1.37 1.37 0 0 0-2.028 1.066c.042.39.22.755.503 1.027-.246.322-.5.641-.752.959a16.146 16.146 0 0 1-.513-.384.368.368 0 0 0-.508 0 .36.36 0 0 0-.005.505Zm2.091-2.357a.675.675 0 0 1 .767-.202c-.214.3-.428.603-.648.9-.185-.238-.304-.496-.119-.699v.001Zm.142 1.846c.146.137.261.302.34.484.066.237-.394.593-.942.283.202-.254.404-.509.602-.767Z"/><path fill="#000" d="m109.497 56.712.959-.727c1.049 1.356 2.896.383 2.025-1.535l1.227-.932c.174.222.324.462.446.717.19.42.809.056.62-.362a4.442 4.442 0 0 0-.481-.799l.685-.519a.366.366 0 0 0 .036-.596.349.349 0 0 0-.266-.07.35.35 0 0 0-.132.047l-.79.598a3.721 3.721 0 0 0-.242-.234 1.171 1.171 0 0 0-1.841.083 1.867 1.867 0 0 0-.129 1.826l-1.037.787a7.044 7.044 0 0 1-.631-.933c-.217-.409-.829-.05-.62.362.191.357.416.695.674 1.009l-.869.659a.365.365 0 0 0-.129.49.363.363 0 0 0 .495.129Zm2.776-3.826a.508.508 0 0 1 .479-.28c.197.074.372.197.509.357l-1.044.79a1.195 1.195 0 0 1 .056-.867Zm-.378 2.007a.96.96 0 0 1-.004.872c-.204.264-.582.085-.768-.105-.033-.034-.063-.077-.095-.11l.867-.657ZM97.904 74.946l-.168.95c-.077.452.614.646.69.191l.185-1.04a1.936 1.936 0 0 0 1.395-.57.808.808 0 0 0 .196-.961 2.257 2.257 0 0 0-.908-.653c-.09-.05-.18-.1-.271-.147l.165-.928c.25.02.5.05.75.077a.36.36 0 0 0 .359-.36.367.367 0 0 0-.359-.358c-.199-.024-.41-.054-.624-.077l.1-.56c.076-.451-.615-.645-.691-.19l-.126.71a1.83 1.83 0 0 0-.441.07.974.974 0 0 0-.25 1.792c.107.068.218.13.327.192l-.203 1.15a1.376 1.376 0 0 1-.565-.423.354.354 0 0 0-.39-.079.353.353 0 0 0-.22.332c0 .094.037.185.103.253.244.3.574.52.946.63Zm.988-1.483c.226.125.353.192.435.236.26.137.345.191 0 .424a1.33 1.33 0 0 1-.585.207c.047-.29.097-.579.147-.867h.003Zm-.425-1.697-.1.567c-.043-.028-.092-.05-.133-.08-.203-.147-.11-.446.23-.487h.003ZM25.987 35.64a6.247 6.247 0 0 0-.722-.22c-.016-.3-.029-.6-.05-.899.373.026.736.13 1.067.307a.36.36 0 0 0 .362-.62 3.501 3.501 0 0 0-1.494-.392c-.02-.215-.035-.43-.058-.645a.367.367 0 0 0-.359-.358.36.36 0 0 0-.36.358c.024.21.04.42.058.629-.598.013-1.38.11-1.682.651-.522.926 1.22 1.394 1.826 1.543.014.393.023.786.025 1.18a2.958 2.958 0 0 1-1.344-.768.355.355 0 0 0-.507.017.361.361 0 0 0 0 .491c.497.51 1.14.853 1.841.98 0 .222 0 .444-.009.665a.36.36 0 1 0 .718 0c.007-.216.006-.433.009-.65.715-.103 1.52-.564 1.512-1.35-.003-.512-.413-.754-.833-.918Zm-2.568-.884a.743.743 0 0 1 .224-.118 2.89 2.89 0 0 1 .853-.125c.018.241.027.483.04.726a2.7 2.7 0 0 1-1.117-.483Zm2.636 1.963a1.061 1.061 0 0 1-.737.466c0-.34-.011-.68-.022-1.02.217.053.428.13.63.225.167.082.22.154.129.329Zm15.617-11.143a.368.368 0 0 0 .25-.442l-1.486-10.258a.362.362 0 0 0-.442-.251.368.368 0 0 0-.25.44l1.486 10.26a.362.362 0 0 0 .442.25Zm2.803-.786 3.162-7.912a.362.362 0 0 0-.25-.442.368.368 0 0 0-.442.251L43.783 24.6a.363.363 0 0 0 .25.442.369.369 0 0 0 .442-.252Zm100.573 49.556a.362.362 0 0 0-.508 0l-6.259 7.812a.37.37 0 0 0 0 .508.359.359 0 0 0 .508 0l6.259-7.811a.369.369 0 0 0 0-.508Zm-5.274 9.864 9.112-4.926c.406-.22.044-.84-.362-.62l-9.111 4.925c-.409.22-.047.84.361.62Zm-9.81-65.239a.36.36 0 0 0-.044.227c.01.079.045.152.101.208 1.73 1.815 3.55 3.542 5.246 5.389a.358.358 0 0 0 .507 0 29.987 29.987 0 0 1 12.495-7.75.37.37 0 0 0 .251-.44 20.713 20.713 0 0 0-3.453-7.252.365.365 0 0 0-.062-.06.328.328 0 0 0-.343-.105 26.988 26.988 0 0 0-14.698 9.783Zm14.642-9.022a19.535 19.535 0 0 1 3.132 6.522 30.192 30.192 0 0 0-12.21 7.56c-1.556-1.669-3.222-3.23-4.778-4.898a26.305 26.305 0 0 1 13.856-9.184Z"/><path fill="#000" d="M137.256 16.36c.679.537 1.523.205 2.225-.111.32.325.62.669.899 1.03a3.725 3.725 0 0 1-1.462.613c-.453.087-.261.779.191.69a4.374 4.374 0 0 0 1.671-.718.355.355 0 0 0 .35.202.364.364 0 0 0 .318-.25c.015-.046.019-.094.015-.142a.38.38 0 0 0-.041-.136c-.028-.048-.063-.092-.092-.14.468-.493.748-1.168.204-1.745a1.687 1.687 0 0 0-1.9-.24 19.04 19.04 0 0 1-.947-1.024c.295-.195.612-.355.945-.477.434-.153.248-.844-.19-.69-.423.15-.825.35-1.2.596a7.207 7.207 0 0 1-.25-.388.353.353 0 0 0-.356-.169.355.355 0 0 0-.296.262.361.361 0 0 0 .032.269c.093.16.196.315.307.468a2.095 2.095 0 0 0-.807 1.166.992.992 0 0 0 .384.934Zm3.815.222a1.16 1.16 0 0 1-.158.23 11.69 11.69 0 0 0-.728-.837c.577-.167 1.087.21.886.607Zm-3.46-1.157a1.91 1.91 0 0 1 .5-.622c.27.317.56.619.839.903-.902.457-1.512.127-1.339-.281Zm-74.957 98.811-3.252 5.086V75.99a.359.359 0 0 0-.718 0v43.464l-3.252-5.218c-.244-.39-.865-.031-.62.362l3.873 6.208a.37.37 0 0 0 .31.173.368.368 0 0 0 .31-.173l3.969-6.208c.249-.386-.372-.745-.62-.362Zm28.843 15.883c.261.421.544.117.802-.287l3.787-5.921c.25-.39-.371-.751-.62-.362l-3.251 5.086v-24.45a.359.359 0 0 0-.719 0v24.581l-3.251-5.212c-.244-.391-.866-.032-.62.362l3.872 6.203Zm22.938 6.609a189.436 189.436 0 0 1-10.454 3.515c-.44.134-.253.827.191.69a189.95 189.95 0 0 0 10.453-3.514c.43-.157.244-.851-.19-.691Zm.034 1.948-7.009 6.663c-.336.319.173.825.507.508l7.009-6.663c.337-.319-.172-.827-.507-.508Zm31.295 5.561-8.154-5.033c-.394-.243-.756.377-.363.62l8.155 5.035c.395.243.755-.378.362-.622Zm2.234-4.111a.358.358 0 0 0-.242-.426 209.575 209.575 0 0 1-9.91-2.736.359.359 0 0 0-.191.691c3.281.992 6.585 1.905 9.911 2.736a.36.36 0 0 0 .432-.265Z"/></svg>