<svg xmlns="http://www.w3.org/2000/svg" width="154" height="155" fill="none"><path fill="#000" d="m112.976 19.578-.652-5.339c-.046-.379-.648-.384-.601 0l.653 5.34c.046.378.647.384.6 0Zm18.641 3.53 2.183-5.256c.148-.356-.432-.512-.579-.16l-2.183 5.256c-.148.357.433.513.579.16Zm3.549 3.009 4.497-4.1c.287-.26-.139-.684-.425-.424l-4.497 4.1c-.286.261.14.684.425.424Zm7.77 31.137 4.129 1.881c.349.16.655-.358.307-.518l-4.129-1.882c-.353-.16-.659.359-.307.519ZM44.75 25.972c-2.19-3.322-6.163-4.527-9.95-3.982-3.26.466-5.96 2.963-5.3 6.242a8.73 8.73 0 0 1 .378 2.26 1.47 1.47 0 0 1-1.089 1.344c-1.423.354-2.078-.127-3.81.264a3.37 3.37 0 0 0-2.301 3.704c.212.98.723 1.599.384 2.066a1.057 1.057 0 0 1-.826.317c-.86.041-1.723-.105-2.586-.086-1.507.033-3.013.7-3.463 2.158a3.545 3.545 0 0 0 .728 2.839c-1.41-.102-2.882-.041-4.001.937a2.735 2.735 0 0 0-.935 1.822 2.65 2.65 0 0 0 .754 1.887c.52.529 1.13.964 1.798 1.286.478.238.967.451 1.467.638a26.748 26.748 0 0 1 19.808-9.507c.288-.026.336.005.498-.006 3.54-.029 5.354-.179 8.343.286a24 24 0 0 0 1.753-6.076 12.307 12.307 0 0 0-1.65-8.393Zm-3.068 5.334a3.733 3.733 0 0 1-3.216 3.034c-1.68.219-3.597-.75-3.995-2.478a4.129 4.129 0 0 1 1.553-4.542 3.922 3.922 0 0 1 4.22.1 3.816 3.816 0 0 1 1.434 3.886h.004Zm34.585 78.338h-.015a.396.396 0 0 0-.119-.005c-5.614.921-14.507 2.502-18.017 6.924a7.459 7.459 0 0 0-1.731 5.667c.537 3.675 4.603 7.323 8.282 8.11 3.502.749 7.166-1.241 8.783-6.461 1.082-3.49 1.409-6.358 3.045-13.834a.32.32 0 0 0-.228-.401Zm8.83-79.463-5.94-8.854c-.215-.32-.735-.019-.519.307l5.202 7.754c-3.754-2.248-13.315-8.002-14.462-8.655a.301.301 0 0 0-.307.519c3.913 2.404 13.291 7.968 14.585 8.739l-9.405-.362c-.383-.016-.383.586 0 .6 8.034.307 10.512.407 10.604.405a.294.294 0 0 0 .242-.453Zm38.481 80.497c-1.074-.659-2.162-.171-3.556-1.594-.894-.914-.891-1.051-1.393-1.365a1.044 1.044 0 0 0-1.133.223 1.035 1.035 0 0 0-.226.337 3.51 3.51 0 0 0-.383 1.649c.008.573.155 1.135.43 1.637.704 1.151 2.058 1.249 3.397 1.296 1.205.042 2.641.306 2.817 1.496.044.3.519.264.579 0a7.894 7.894 0 0 0 .19-1.599c.017-.721-.044-1.664-.722-2.08ZM31.975 99.67c-.035-1.757-.188-3.659-1.516-4.948a5.705 5.705 0 0 0-6.095-1.074 8.875 8.875 0 0 0-1.527-1.94c-.279-.267-.705.153-.424.424.199.191.383.393.563.6a34.227 34.227 0 0 0-1.126-.591c-.345-.172-.65.346-.303.518.77.393 1.526.808 2.271 1.246a8.393 8.393 0 0 0-3.945 5.523c-.394 1.707-.238 3.537-.886 5.185-.73 1.856-2.315 2.371-3.946 3.326-5.532 3.237-3.601 6.395-5.255 9.164-1.415 2.368-4.276 3.556-4.96 6.415-.948 3.968 4.689 7.724 8.546 5.091 3.8-2.595 4.403-9.294 8.97-10.671.81-.244 1.664-.245 2.48-.46 2.048-.543 2.895-2.553 3.155-4.646.47-3.783-.28-5.678-.351-7.974a3.642 3.642 0 0 1 1.535-3.245c.88-.421 1.098-.194 1.892-.429.904-.274 1.16-1.172.922-1.513Z"/><path fill="#000" d="M25.558 118.03a8.954 8.954 0 0 0-7.736 5.282c-.492 1.2-.712 2.498-1.243 3.683a4.193 4.193 0 0 1-2.511 2.486.301.301 0 0 0 .16.579c2.43-.602 3.145-3.307 3.755-5.395a8.42 8.42 0 0 1 1.588-3.096 8.83 8.83 0 0 1 5.984-2.937c.386-.03.389-.63.003-.602Zm54.809-12.286a.233.233 0 0 0-.02-.035c-.004-.012-.005-.025-.01-.037-.697-1.313-2.507-.819-3.273.511a7.347 7.347 0 0 0-.882 2.585.307.307 0 0 0 .222.369c.113.029.196-.015.372-.055 1.621-.37 4.067-1.828 3.591-3.338Zm-6.95 21.229c-.139.361.442.518.579.159a46.743 46.743 0 0 0 3.008-14.098c.022-.384-.579-.384-.6 0a46.04 46.04 0 0 1-2.987 13.939Zm50.708-17.547a5.01 5.01 0 0 1-2.018-.389 5.01 5.01 0 0 1-1.69-1.168c-.265-.283-.691.143-.424.425a5.58 5.58 0 0 0 4.132 1.733.306.306 0 0 0 .292-.182.304.304 0 0 0-.069-.337.305.305 0 0 0-.223-.082Zm15.853-69.699a19.296 19.296 0 0 0-7.988-8.368.356.356 0 0 0-.479.125c-1.185 2.217-8.567 15.785-8.688 16.008-.121.222-.333.474-.243.731.047.137 8.091 17.145 8.133 17.224a.357.357 0 0 0 .479.126 19.307 19.307 0 0 0 8.786-25.845Zm-8.806 25.065c-.22-.467-7.791-16.527-7.877-16.697.849-1.575 7.519-13.835 8.654-15.948a18.585 18.585 0 0 1 9.089 19.033 18.592 18.592 0 0 1-9.866 13.612Zm-17.273-17.395a.353.353 0 0 0 .255-.589c-.077-.098-15.173-8.295-23.79-13.032a.357.357 0 0 0-.48.126 27.537 27.537 0 0 0-3.588 13.144.358.358 0 0 0 .35.35h27.253Zm-26.89-.709a26.494 26.494 0 0 1 3.317-12.13c2.961 1.628 20.825 11.427 22.17 12.138.001 0-25.238-.009-25.486-.008Zm40.075 23.732a.355.355 0 0 0 .159-.215.365.365 0 0 0-.033-.265c-.959-2.03-7.006-14.832-9.851-20.862-.081-.172-.145-.307-.361-.365-.153-.029.757-.013-23.253-.013a.353.353 0 0 0-.35.35 23.403 23.403 0 0 0 33.689 21.37Zm-10.339-21.003c.04.077-.187-.4 9.695 20.529a22.696 22.696 0 0 1-32.343-20.544c26.442 0 21.807-.009 22.648.015Zm11.338-23.499a21.297 21.297 0 0 0-3.423-1.541 23.42 23.42 0 0 0-28.205 10.464.353.353 0 0 0 .125.48c4.329 2.495 18.908 10.387 20.138 11.01.031.091.455.528.661.03 1.393-2.597 10.046-18.5 10.83-19.963a.352.352 0 0 0-.126-.48Zm-11.121 19.738c-.647-.313-19.634-10.723-19.718-10.767a22.678 22.678 0 0 1 30.183-8.523c-1.364 2.56-10.389 19.15-10.465 19.29Zm-4.286-25.726a.352.352 0 0 0 .35-.351l-.652-5.34a.362.362 0 0 0-.35-.35.351.351 0 0 0-.351.35l.653 5.34a.357.357 0 0 0 .35.35Zm18.988 3.191 2.184-5.256a.352.352 0 0 0-.245-.43.36.36 0 0 0-.431.245l-2.183 5.255a.351.351 0 0 0 .245.43.358.358 0 0 0 .43-.244Zm3.538 3.033 4.497-4.1c.334-.307-.163-.798-.496-.495l-4.497 4.1c-.333.303.163.797.496.495Zm8.062 30.537c-.407-.185-.767.418-.354.605l4.13 1.881c.407.187.767-.418.353-.604l-4.129-1.882ZM38.47 34.39a3.784 3.784 0 0 0 3.258-3.07 3.88 3.88 0 0 0-1.462-3.944 3.963 3.963 0 0 0-4.27-.1c-1.555.969-1.948 2.897-1.575 4.601a3.653 3.653 0 0 0 4.05 2.512Zm-2.45-6.256a3.132 3.132 0 1 1 2.993 5.409c-1.514.52-3.515-.178-3.92-1.853a3.598 3.598 0 0 1 .927-3.556Z"/><path fill="#000" d="M131.69 76.241c-.84.077-30.039 2-31.484 2.095a2.562 2.562 0 0 0-.126-1.228c-.79-2.163-3.76-2.363-6.062-2.406a98.562 98.562 0 0 0-19.37 1.185c-.322-.096 1.106.441-6.174-2.508l-.021-1.927c.077-6.735-1.252-12.835-5.07-18.69a27.545 27.545 0 0 0-18.668-12.368 23.473 23.473 0 0 0 1.734-6.033c.482-3.637-.341-7.52-3.02-10.035a10.423 10.423 0 0 0-8.644-2.385c-3.299.417-6.045 3.108-5.333 6.303.227.73.353 1.485.376 2.248a1.417 1.417 0 0 1-1.055 1.294c-1.443.36-2.061-.13-3.81.265a3.418 3.418 0 0 0-2.34 3.765c.179.94.723 1.558.393 2.022a1.008 1.008 0 0 1-.787.298c-.86.04-1.722-.105-2.587-.086-1.543.034-3.057.724-3.51 2.194a3.516 3.516 0 0 0 .683 2.793c-1.396-.092-2.849-.02-3.943.96a2.748 2.748 0 0 0-.95 1.856 2.69 2.69 0 0 0 .768 1.922c.52.538 1.134.976 1.812 1.294.457.231.927.436 1.407.613a31.074 31.074 0 0 0-7.4 20.333v18.377a.355.355 0 0 0 .35.351c28.791.427 33.792.475 33.792.475s47.164 16.228 47.922 16.483a8.622 8.622 0 0 0 4.532.614c1.949-.42 3.698-2.787 2.257-4.595a5.394 5.394 0 0 0-1.269-1.112 29.058 29.058 0 0 0-3.35-1.947 31.817 31.817 0 0 0 8.664 1.62 5.346 5.346 0 0 0 2.691-.442 3.45 3.45 0 0 0 1.478-3.99 3.351 3.351 0 0 0-1.616-1.87c-1.298-.633-2.302-.712-7.274-2.321a43.98 43.98 0 0 0 6.09-.377 21.419 21.419 0 0 0 3.95-.934 8.736 8.736 0 0 0 2.881-1.588 3.563 3.563 0 0 0 1.329-3.006c-.041-.077-.049-1.64-2.215-2.784l23.649-3.227a1.776 1.776 0 0 0 1.208-.73 1.784 1.784 0 0 0 .022-2.043 1.79 1.79 0 0 0-1.19-.76 1.786 1.786 0 0 0-.72.03v.002ZM13.828 47.853c-2.335-1.688-.987-4.02 1.777-4.144.636-.015 1.273.015 1.905.088a.353.353 0 0 0 .303-.527 5.212 5.212 0 0 1-1.04-2.086 1.872 1.872 0 0 1 .744-1.758c2.087-1.572 5.455.395 6.204-1.425.296-.718-.185-1.403-.358-2.082a2.702 2.702 0 0 1 1.305-2.988c1.592-.895 3.67.35 5.217-.984a2.349 2.349 0 0 0 .644-1.872c-.143-1.526-.893-2.618-.199-4.278a5.21 5.21 0 0 1 3.223-2.83 9.875 9.875 0 0 1 8.525 1.166 9.488 9.488 0 0 1 3.755 7.135c.267 3.115-.624 6.138-1.817 9.027a24.52 24.52 0 0 0-3.164-.214c-9.19-.127-17.012.811-24.452 9.044a9.767 9.767 0 0 1-2.572-1.272Zm27.757-7.06c-.94 1.728-3.197 1.353-4.544 0 1.513-.02 3.03-.053 4.546.004l-.002-.004Zm.708 47.724c-3.14-.048-32.762-.49-33.084-.483 0-16.356-.062-18.875.14-21.027 1.333-14.173 12.28-26.028 26.748-26.198 1.732 2.284 5.183 2.67 6.305.03 12.458.865 22.085 10.55 24.643 22.52.767 3.6.69 5.889.73 9.74-11.917-4.822-42.478-17.069-44.012-17.694a.354.354 0 0 0-.431.245.359.359 0 0 0 .244.43c.322.13 35.395 14.222 35.724 14.349-4.801 5.677-8.133 13.12-9.942 20.396-7.343-2.54-6.438-2.299-7.065-2.308Zm67.945-2.702c.399 3.846-7.423 5.045-11.295 5.105-1.462.055-2.925.02-4.388.039a.354.354 0 0 0-.29.545.35.35 0 0 0 .198.146c4.942 1.658 3.672 1.189 7.8 2.443a3.873 3.873 0 0 1 2.378 1.423 2.756 2.756 0 0 1-.627 3.56 3.85 3.85 0 0 1-2.325.522c-4.25-.077-7.19-1.144-12.547-2.707a.353.353 0 0 0-.42.449.34.34 0 0 0 .15.191 62.668 62.668 0 0 1 6.738 3.607c.828.56 1.773 1.291 1.53 2.412a2.737 2.737 0 0 1-1.855 2.002c-1.495.477-3.069-.029-4.5-.508-.75-.252-40.178-13.779-40.71-13.965 2.337-9.296 5.908-15.724 9.907-20.376 3.622 1.453 14.127 5.755 14.522 5.881.807.12 8.093-1.639 19.395-1.183 1.487.06 3.193.039 4.533.802a2.122 2.122 0 0 1 1.084 1.665c-.1 3.562-5.765 4.718-9.283 4.96-.447.031-.453.726 0 .7 3.031-.17 11.957-.67 13.388-.733a11.249 11.249 0 0 1 4.012.472 3.594 3.594 0 0 1 2.605 2.548Zm-2.85-3.36c-2.356-.623-4.074-.36-11.724.068 1.81-.555 3.656-1.65 4.358-3.478l31.795-2.112a1.084 1.084 0 0 1 .67 2.056c-.224.099 1.448-.165-25.099 3.466Zm8.348 32.272a3.936 3.936 0 0 0 2.627 3.613 5.146 5.146 0 0 0 3.656-.049c1.779-.768 2.29-3.617 2.333-5.533.017-.741-.052-1.697-.748-2.122a7.4 7.4 0 0 0-1.978-.598c-1.565-.5-2.072-1.798-2.971-2.362-1.437-.72-2.413 2.119-1.401 3.876a3.362 3.362 0 0 0-1.518 3.175Zm1.863-5.408c.054-.28.259-1.191.718-1.03.447.154 1.211 1.697 2.885 2.35.702.129 1.389.33 2.049.602.49.3.415 1.352.374 1.922-1.541-1.424-3.344-.633-4.86-1.213a2.218 2.218 0 0 1-1.166-2.631Zm.098 2.777c.8.717 1.961.778 3.018.815.856.03 2.124.169 2.598.976a3.708 3.708 0 0 1-.154 1.977 2.66 2.66 0 0 1-2.516 2.051 4.044 4.044 0 0 1-3.31-1.039c-1.195-1.335-1.379-3.689.367-4.78h-.003Z"/><path fill="#000" d="m4.207 141.218 52.404.009a.345.345 0 0 0 .154-.039.35.35 0 0 0 .184-.404c-1.616-6.768-3.106-12.359-6.496-17.828A23.591 23.591 0 0 0 28.1 112.164a19.527 19.527 0 0 0-.088-4.286c1.195 0 2.592-.185 3.299-1.207.336-.561.51-1.204.502-1.858a32.184 32.184 0 0 0-.132-3.931 1.097 1.097 0 0 0 .345-1.223c-.036-1.765-.195-3.676-1.53-4.974a5.727 5.727 0 0 0-6.11-1.1 8.978 8.978 0 0 0-1.513-1.914c-.325-.31-.821.184-.494.496.132.126.257.258.383.392a26.648 26.648 0 0 0-.882-.46c-.403-.201-.758.404-.354.605 1.632.815 2.059 1.159 2.198 1.198a8.48 8.48 0 0 0-3.893 5.51c-.582 2.528 0 5.497-2.48 7.148-1.404.971-4.656 2.099-6.037 4.998-.835 1.753-.56 3.837-1.565 5.517-.94 1.574-2.517 2.619-3.683 4.007-1.266 1.506-1.827 3.279-.98 5.087a5.61 5.61 0 0 0 1.51 1.919 27.303 27.303 0 0 0-2.735 12.778.358.358 0 0 0 .345.352Zm23.817-28.348a22.95 22.95 0 0 1 7.285.406c-2.482.819-4.322 1.534-7.62 1.174a9.448 9.448 0 0 0 .335-1.58Zm3.012-7.376a1.763 1.763 0 0 1-.887 1.291 4.981 4.981 0 0 1-2.233.384 15.607 15.607 0 0 1-.237-2.322c-.03-.871.215-1.73.698-2.455a2.435 2.435 0 0 1 2.056-1.047c.195-.02.389-.056.578-.109.077 1.029.065 1.109.11 2.407.03.618 0 1.238-.085 1.851ZM5.494 123.532c.68-2.541 3.265-3.571 4.876-6.138 1.122-2.064.594-2.933 1.48-5.341 1.298-2.839 4.27-3.83 5.755-4.821a5.384 5.384 0 0 0 2.45-4.25c.244-1.705.178-3.045.927-4.878a7.25 7.25 0 0 1 3.006-3.567c2.625-1.47 6.314-.509 7.065 2.544.194.888.288 1.796.278 2.705 0 .07.024.135.065.19.052.383-.46.585-.754.642a9.54 9.54 0 0 0-1.311.209 3.245 3.245 0 0 0-1.73 1.488c-1.013 1.749-.507 3.764-.272 5.645.257 1.93.197 3.889-.176 5.8-.332 1.55-1.22 2.922-2.807 3.159-.767.114-1.525.24-2.274.422-5.228 1.682-5.55 9.455-10.123 11.278-3.69 1.077-7.227-2.191-6.455-5.087Zm1.664 4.975a5.608 5.608 0 0 0 6.242.138c3.829-2.647 4.428-9.3 8.957-10.665 1.616-.488 3.831.041 5.085-2.861 4.616.573 7.433-1.125 9.167-1.504.174.007.346.044.507.112a22.39 22.39 0 0 1 9.554 5.589c5.56 5.777 7.583 13.232 9.494 21.207H42.426a26.961 26.961 0 0 0-1.85-5.538c-.188-.41-.793-.054-.605.353.758 1.662 1.34 3.4 1.736 5.183-.94 0-36.565-.027-37.157-.009-.073-4.15.82-8.26 2.608-12.005Zm96.424 12.362a53.586 53.586 0 0 0-1.305-8.44c-3.341-14.001-15.688-20.037-25.373-17.503.06-.628.112-1.257.147-1.887.025-.45-.676-.449-.701 0a44.93 44.93 0 0 1-.169 2.084c-.374.147-.26.09-.757.283a920.273 920.273 0 0 1 1.112-5.341.37.37 0 0 0-.41-.473h-.012c-5.63.921-14.525 2.51-18.04 6.936a7.516 7.516 0 0 0-1.743 5.715c.455 3.092 3.39 6.164 6.49 7.542a94.64 94.64 0 0 0-2.966 10.993.357.357 0 0 0 .255.432c.066.017 10.819.011 43.12.011a.346.346 0 0 0 .249-.103.34.34 0 0 0 .076-.115.341.341 0 0 0 .027-.134Zm-18.025-25.314a8.322 8.322 0 0 1-2.48 1.188 6.753 6.753 0 0 1-5.63-1.235 17.105 17.105 0 0 1 8.113.047h-.003Zm-28.214 7.812a6.308 6.308 0 0 1 .66-5.525 10.776 10.776 0 0 1 4.553-3.877c4.055-1.928 8.767-2.869 13.206-3.606-2.213 10.259-2.498 14.076-4.757 16.928a6.262 6.262 0 0 1-4.723 2.558c-3.63.075-7.753-3.248-8.939-6.478Zm33.732 17.151-.69-4.914a.352.352 0 0 0-.166-.21.35.35 0 0 0-.265-.035.355.355 0 0 0-.244.431l.666 4.728H66.593v-2.66a.35.35 0 0 0-.35-.335.35.35 0 0 0-.35.335v2.66s-4.82-.013-5.254-.005a89.52 89.52 0 0 1 2.839-10.467c4.803 1.747 8.42-1.233 10.019-6.156a75.766 75.766 0 0 0 1.764-7.661c.278-.117.559-.224.844-.325a45.994 45.994 0 0 1-2.734 11.059c-.16.421.517.604.677.185a46.512 46.512 0 0 0 2.755-11.217 7.503 7.503 0 0 0 9.68-.137 21.21 21.21 0 0 1 7.51 4.012c6.283 5.227 8.133 12.61 8.863 20.712h-11.78Zm20.946-13.757a23.089 23.089 0 0 0-5.97 14.108.351.351 0 0 0 .351.349h35.2a.362.362 0 0 0 .277-.139.356.356 0 0 0 .061-.303 66.944 66.944 0 0 0-2.212-7.697 21.514 21.514 0 0 0-3.876-6.675c-6.213-6.964-17.486-6.285-23.831.357Zm29.138 13.757h-6.173v-2.497a.345.345 0 0 0-.108-.237.348.348 0 0 0-.484 0 .35.35 0 0 0-.108.237v2.494h-2.798a467.266 467.266 0 0 1-.497-16.905c6.421 3.056 8.58 10.062 10.168 16.908Zm-10.873-17.223c-.012-1.326.107 8.95.5 17.223h-8.407c-.767-4.561-2.749-16.262-2.967-17.552a16.067 16.067 0 0 1 10.874.329Zm-8.612 17.223h-4.435l.46-3.509a.363.363 0 0 0-.026-.134.38.38 0 0 0-.076-.114.36.36 0 0 0-.248-.102.355.355 0 0 0-.35.35l-.461 3.509s-9.401-.013-9.752-.006a22.257 22.257 0 0 1 5.129-12.589 16.251 16.251 0 0 1 6.832-4.73l2.927 17.325ZM74.256 30.274c8.55.328 10.511.408 10.607.403a.346.346 0 0 0 .29-.18.345.345 0 0 0-.012-.342L79.2 21.3c-.25-.372-.856-.022-.605.354l5.082 7.574c-3.615-2.164-13.115-7.885-14.271-8.544a.35.35 0 1 0-.354.606c3.859 2.31 13.445 8.071 14.387 8.637l-9.181-.353c-.453-.019-.452.683-.002.7Zm74.774 46.103c-.076.047-8.806 7.64-13.755 11.134-.365.258-.015.866.354.605 3.499-2.47 9.13-7.17 12.371-9.94-.96 1.711-17.089 29.478-17.194 29.652-3.514-3.687-12.485-13.321-13.534-14.378a.368.368 0 0 0-.293-.097.359.359 0 0 0-.257.169c-2.169 3.349-7.993 11.773-8.628 12.709-.253.374.353.724.605.354l8.369-12.33c3.525 3.697 12.516 13.35 13.563 14.408a.353.353 0 0 0 .135.082.348.348 0 0 0 .415-.153c.447-.758 16.359-28.165 17.539-30.267l-1.743 15.159a.353.353 0 0 0 .351.35.363.363 0 0 0 .35-.35l1.938-16.852c.037-.308-.392-.447-.586-.255ZM37.138 85.451l-19.78-7.354c-.423-.153-.606.52-.186.676l19.778 7.351c.424.16.606-.517.188-.672Zm54.05 4.702a43.974 43.974 0 0 0-3.913-.793.359.359 0 0 0-.43.245.342.342 0 0 0 .033.266.339.339 0 0 0 .212.164 43.75 43.75 0 0 1 3.913.794.35.35 0 0 0 .186-.676ZM87.434 96.5l-2.839-.668c-.439-.104-.626.571-.186.675l2.839.668c.439.104.625-.572.186-.675Z"/><path fill="#000" d="M14.241 130.106c2.443-.632 3.146-3.333 3.791-5.431a8.167 8.167 0 0 1 7.526-5.995c.447-.034.45-.735 0-.701a9.015 9.015 0 0 0-7.784 5.318c-.49 1.196-.708 2.49-1.237 3.67a4.16 4.16 0 0 1-2.481 2.463.352.352 0 0 0-.076.638c.079.047.173.06.261.038Zm62.779-23.948a7.39 7.39 0 0 0-.885 2.597.356.356 0 0 0 .258.43.681.681 0 0 0 .343-.042 2.46 2.46 0 0 0 2.573 1.822c1.919-.04 2.9-3.001 1.002-4.157.953-1.734-1.922-3.02-3.29-.65Zm-.09 2.22a6.813 6.813 0 0 1 .501-1.548 2.542 2.542 0 0 1 1.138-1.187.927.927 0 0 1 .645-.067c.215.057.403.19.529.374.2.699-.697 1.348-1.192 1.68a5.773 5.773 0 0 1-1.622.748Zm2.378 1.886a1.751 1.751 0 0 1-1.19-.303 1.752 1.752 0 0 1-.701-1.007 6.011 6.011 0 0 0 2.485-1.565c1.325.679.677 2.849-.593 2.875h-.001Zm44.818-.188a.348.348 0 0 0 .334-.35.35.35 0 0 0-.334-.35 4.89 4.89 0 0 1-3.673-1.543c-.307-.33-.803.166-.495.495a5.573 5.573 0 0 0 4.168 1.748Zm-15.512-47.977h3.376a.352.352 0 0 0 .298-.18.363.363 0 0 0 .048-.173.344.344 0 0 0-.044-.174c-.521-.936-1.183-1.786-1.688-2.732a.338.338 0 0 0-.302-.179.342.342 0 0 0-.302.179 18.652 18.652 0 0 1-1.688 2.731c-.177.233.066.536.302.528Zm1.706-2.37c.344.56.712 1.109 1.056 1.67h-2.095a21.5 21.5 0 0 0 1.039-1.67Zm22.482-12.979a1.859 1.859 0 1 0 2.46 2.129 1.863 1.863 0 0 0-.457-1.651 2.028 2.028 0 0 0-2.003-.478Zm1.49 2.522a1.093 1.093 0 0 1-1.617-.094 1.25 1.25 0 0 1 .076-1.615 1.23 1.23 0 0 1 1.556.16 1.098 1.098 0 0 1-.015 1.55v-.001Zm-19.873-15.349-1.323-.78.655-1.268c.207-.4-.398-.754-.605-.354l-.654 1.268c-.405-.237-.804-.483-1.212-.713a.353.353 0 0 0-.474.13.354.354 0 0 0 .12.475c.41.25.829.488 1.244.732l-.642 1.24c-.206.4.398.755.606.354l.639-1.24c.432.254.858.516 1.294.761a.35.35 0 0 0 .354-.605h-.002ZM46.284 86.407a19.184 19.184 0 0 1-3.588-1.5c-.396-.215-.75.39-.354.605a20.105 20.105 0 0 0 3.76 1.57.35.35 0 0 0 .186-.675h-.004Z"/></svg>