<svg xmlns="http://www.w3.org/2000/svg" width="154" height="155" fill="none"><path fill="#000" d="M46.296 69.445a.283.283 0 0 0-.422-.243c-1.59.928-3.198.244-5.774.46-2.916.249-6.368 1.891-7.767 4.528-.562 1.057-.967 2.591-.173 3.47 1.475-2.83 5.193-3.087 7.56-1.323.185.124.354.272.503.44a9.465 9.465 0 0 0 4.258-2.33 6.228 6.228 0 0 0 1.816-5.002Zm-21.283 8.193a6.206 6.206 0 0 0-2.067-2.172 4.25 4.25 0 0 0-3.836-.094 4.067 4.067 0 0 0-1.83 4.38c.08.352.622.203.542-.15a3.466 3.466 0 0 1 1.465-3.683 3.54 3.54 0 0 1 3.428.06c1.688.917 3.7 5.283 5.704 8.633a.278.278 0 0 0 .281.137.282.282 0 0 0 .204-.42c-.808-1.474-2.945-5.303-3.891-6.691Z"/><path fill="#000" d="M52.333 82.947c-1.096-6.028-7.308-6.72-9.073-2.957a7.933 7.933 0 0 0-.745 3.698c-.087-.046.12-.032-2.916-.032-.205-2.378-1.55-4.837-3.786-5.678a4.164 4.164 0 0 0-5.378 2.012 8.593 8.593 0 0 0-.317 6.267 5.567 5.567 0 0 0 2.075 2.828c3.223 2.297 7.503.128 7.435-4.867 2.992 0 2.816.022 2.916-.05.051.709.186 1.41.402 2.088.792 2.496 3.376 4.249 5.925 3.607 2.347-.597 4.096-3.428 3.462-6.916Zm-14.83 5.447c-2.137 2.076-5.57.787-6.675-1.83-.973-2.302-.798-6.403 1.37-7.797a3.884 3.884 0 0 1 2.817-.439c3.86.826 5.532 7.114 2.489 10.07v-.004Zm12.827 0c-2.148 2.085-5.601.777-6.675-1.83a8.626 8.626 0 0 1-.17-5.658 4.084 4.084 0 0 1 1.54-2.139 3.928 3.928 0 0 1 2.817-.439c3.884.844 5.517 7.128 2.491 10.07l-.003-.004Zm57.117 10.885a.283.283 0 0 0 .475.19.28.28 0 0 0 .087-.19V85.457a.281.281 0 0 0-.562 0V99.28Zm-3.455-39.669v12.164a.279.279 0 0 0 .479.198.283.283 0 0 0 .082-.198V59.61a.279.279 0 0 0-.083-.198.28.28 0 0 0-.396 0 .283.283 0 0 0-.082.198Zm4.423-17.692v17.417a.28.28 0 0 0 .475.19.28.28 0 0 0 .087-.19V41.918a.284.284 0 0 0-.281-.267.28.28 0 0 0-.281.267Zm3.039-4.284v13.27a.285.285 0 0 0 .177.245.282.282 0 0 0 .386-.246V37.634a.285.285 0 0 0-.282-.267.28.28 0 0 0-.281.267ZM71.069 112.03c-.336.126-.19.67.15.542a51.187 51.187 0 0 1 11.876-2.901c.355-.043.359-.606 0-.563a51.595 51.595 0 0 0-12.026 2.922Zm11.361-5.39a55.846 55.846 0 0 0-12.138 3.391c-.33.134-.185.678.154.542a55.844 55.844 0 0 1 12.138-3.39c.352-.056.203-.598-.153-.543ZM6.843 22.41c1.324 1.918 4.526 6.567 4.526 6.567.204.296.691.014.485-.284l-4.527-6.566c-.203-.296-.69-.015-.484.284v-.001Zm8.208 6.05c.077.353.62.204.542-.15l-2.149-9.691c-.076-.354-.621-.204-.542.153.371 1.693 1.695 7.647 2.148 9.688h.001Z"/><path fill="#000" d="M125.755 122.26h-13.933c.269-1.102-.351-2.21-1.123-3.136a30.559 30.559 0 0 0-8.62-6.884c-4.368-6.231-13.872-18.736-14.308-19.298a.225.225 0 0 0-.307-.058c-.162.11-5.391 4.434-5.479 4.507a.288.288 0 0 0 0 .398c3.588 3.875 3.127 3.67 11.893 12.867-8.587.344-23.334 4.635-34.321 6.899a45.352 45.352 0 0 0-2.787-8.553 28.187 28.187 0 0 0-4.655-7.467c-6.603-7.404-17.335-8.754-26.745-5.726a849.692 849.692 0 0 0 4.935-9.066c1.144 2.71 4.296 4.067 6.706 2.724 1.864-1.044 2.647-3.192 2.62-5.249 2.991 0 2.815.022 2.915-.051.051.71.185 1.41.402 2.09a5.128 5.128 0 0 0 5.925 3.605c2.815-.762 3.997-3.99 3.465-6.913-1.092-6.004-7.306-6.737-9.073-2.957a7.932 7.932 0 0 0-.745 3.698c-.086-.046.12-.032-2.916-.032a7.311 7.311 0 0 0-.295-1.558c1.828-1.21 2.512-3.716.92-5.32 2.456-.715 4.536-1.927 5.584-4.28 0 0 14.515.004 15.882 0a12.707 12.707 0 0 0 9.878-4.73l16.616-19.152h1.253a.282.282 0 0 0 0-.562h-.767c1.948-2.245 1.842-2.084 1.89-2.302a6.498 6.498 0 0 0 0-.715c0-1.64.011-2.405 0-2.78-.015-.512-.114-.46-.406-.468-1.344-.037-8.263-.015-42.987-.015a56.292 56.292 0 0 1 2.078-1.715h41.241a.284.284 0 0 0 .281-.281v-9.806h7.49a.29.29 0 0 0 .274-.307c-.006-.104.319.488-4.97-8.593a.281.281 0 0 0-.242-.137.284.284 0 0 0-.243.137l-2.309 3.963V18.91c.308-.088.586-.26.802-.496 1.176-1.48.043-3.381 1.2-4.467a1.035 1.035 0 0 1 1.457.146c.285.335.444.759.45 1.199.125 1.14.127 2.291.004 3.432-.038.36.524.357.563 0 .153-1.432.099-2.88-.164-4.296a1.726 1.726 0 0 0-1.735-1.26c-.258.01-.51.078-.739.198a2.12 2.12 0 0 0-.804 1.163c-.407 1.48.068 1.933-.442 3.203-.128.25-.335.45-.589.571v-1.646a10.415 10.415 0 0 0-.45-3.662 8.41 8.41 0 0 0-5.883-5.468 13.352 13.352 0 0 0-2.731-.272c-3.942-.086-48.096-.103-49.531.036a8.484 8.484 0 0 0-7.699 8.434v16.666a11.634 11.634 0 0 0-3.657 2.685c-1.266-2.28-4.113-3.12-6.593-2.772-3.171.446-5.496 2.936-6.913 5.656a32.62 32.62 0 0 0-2.954 10.93c-.272 3.152-.52 91.125-.528 93.512a.285.285 0 0 0 .281.281h56.267a.285.285 0 0 0 .282-.281v-.365a68.7 68.7 0 0 0 13.215-.511c0 .307.014.644.014.644a.285.285 0 0 0 .282.281h51.578a.286.286 0 0 0 .281-.281v-19.629a.293.293 0 0 0-.084-.198.29.29 0 0 0-.197-.084ZM43.483 80.91a4.025 4.025 0 0 1 1.54-2.14 3.889 3.889 0 0 1 2.818-.438c3.843.798 5.543 7.11 2.489 10.066-2.101 2.048-5.56.816-6.676-1.83a8.528 8.528 0 0 1-.17-5.658Zm39.1 16.71 4.944-4.08c5.4 7.393 9.308 12.347 13.548 18.261a15.804 15.804 0 0 0-6.445-1.16c-3.977-4.166-8.184-8.648-12.046-13.02Zm-.4 16.202c0-.283.023-.582.011-.869 2.326-.476 4.663-.904 7.013-1.247a30.198 30.198 0 0 1 7.122-.461c5.328.335 9.778 3.809 13.461 7.703.757.802 1.563 1.754 1.535 2.915-.022.849-.946 1.823-1.848 1.565-.254-.073-.498.286-.273.469.815.666.618 2.048-.027 2.763-.94 1.046-2.618 1.023-3.903.964a.277.277 0 0 0-.14.043.27.27 0 0 0-.1.107.276.276 0 0 0 .011.283.276.276 0 0 0 .152.119 1.552 1.552 0 0 1 .966 1.476 2.215 2.215 0 0 1-1.024 1.788 10.68 10.68 0 0 1-2.215 1.111c-4.43 1.667-11.183 4.595-20.741 6.864v-25.593Zm28.088 11.019c.218.315 2.314 3.343 2.511 3.635.111.166.186.345 0 .494-.174.139-.329.044-.461-.091-.252-.256-2.347-2.42-2.347-2.42a2.72 2.72 0 0 0 .297-1.618ZM31.72 79.151a2.969 2.969 0 0 0 .781 2.234 444.565 444.565 0 0 1-2.061 3.899c-.408-2.033-.193-4.64 1.28-6.133Zm.632-.466c2.207-1.145 5.084-.092 6.275 3.168-2.91 1.45-7.023-.298-6.275-3.168Zm5.151 9.713c-2.093 2.037-5.795.905-6.85-2.32a570.01 570.01 0 0 0 2.267-4.29 5.632 5.632 0 0 0 5.882.608c.57 2.05.291 4.462-1.299 6.002Zm2.884-10.386a3.159 3.159 0 0 1-1.273 3.537c-1.243-3.27-4.058-4.444-6.477-3.606a4.036 4.036 0 0 1 1.813-1.759c2.131-.892 5.022-.145 5.937 1.828Zm4.08-4.383a8.589 8.589 0 0 1-4.747 2.71c-2.353-1.733-5.702-1.418-7.25.795a1.764 1.764 0 0 1-.164-1.05c.35-2.496 2.516-4.229 4.875-5.145a11.913 11.913 0 0 1 5.899-.69 5.868 5.868 0 0 0 2.687-.36 5.579 5.579 0 0 1-1.3 3.74ZM90 45.666l-18.957 21.85a12.138 12.138 0 0 1-9.384 4.418H46.031c.278-.799.37-1.65.271-2.49a.285.285 0 0 0-.291-.278c-.9.469-1.921.651-2.928.523a14.163 14.163 0 0 0-4.18.165c.17-.357.334-.715.5-1.074h21.892a12.68 12.68 0 0 0 9.932-4.34c.911-1.044 17.605-20.292 18.77-21.634l.003 2.86Zm-.354-3.305-18.607 21.44a12.138 12.138 0 0 1-9.384 4.418H39.661a120.06 120.06 0 0 0 2.178-4.983c3.474.2 6.96.115 10.42-.254a16.792 16.792 0 0 0 3.886-.777h15.583a.281.281 0 0 0 0-.562H57.354c2.41-1.373 3.272-4.707.981-6.35h5.583a.285.285 0 0 0 0-.562h-6.593c-2.794-1.083-8.798-1.333-11.598-2.059-1.646-.398-2.843-1.842-2.716-4.056h12.14a.281.281 0 0 0 0-.562h-12.08c.353-2.296 1.774-4.13 3.471-5.716 0-.001 42.428.039 43.1.023h.004Zm3.672-20.581 4.45 7.635h-8.9c.078-.135 4.372-7.507 4.45-7.635Zm-68.274-6.055a7.936 7.936 0 0 1 8.202-7.91h48.972a7.91 7.91 0 0 1 7.987 7.835v2.785c-.02 0-.038.007-.059.006a1.304 1.304 0 0 1-1.158-.825c-.485-1.194.098-2.547-.466-3.729a1.907 1.907 0 0 0-1.194-1.05 1.55 1.55 0 0 0-1.516.544c-1.112 1.345-.235 3.319-.861 4.477a1.37 1.37 0 0 1-2.096-.347 3.377 3.377 0 0 1-.374-1.837c.02-.754.082-1.506.189-2.253.044-.358-.518-.354-.563 0a10.122 10.122 0 0 0-.01 3.781c.16.541.508 1.005.984 1.308a2.192 2.192 0 0 0 1.514.199c1.304-.278 1.174-1.904 1.158-2.924a3.583 3.583 0 0 1 .271-1.714 1.052 1.052 0 0 1 1.334-.628c1.25.579.805 2.361.889 3.43.091 1.17.786 2.149 1.96 2.132v6.998L88.14 29.55a.28.28 0 0 0 .002.28.283.283 0 0 0 .24.143h1.825v9.524H49.953a24.33 24.33 0 0 0 4.413-4.137 7.395 7.395 0 0 0 1.809-3.983 3.857 3.857 0 0 0-1.408-3.39c-1.27-1.012-2.877-.568-4.21.092a107.46 107.46 0 0 0-14.459 9.146 7.417 7.417 0 0 0-4.256-5.046 8.688 8.688 0 0 0-6.801-.03l.003-16.424ZM4.763 51.227c.182-6.146 2.36-16.044 8.242-18.053 2.773-.947 6.273-.215 7.513 2.532a.282.282 0 0 0 .442.056c3.74-4.306 9.541-5.078 13.044-1.35a6.215 6.215 0 0 1 1.628 3.382.283.283 0 0 0 .347.196 113.296 113.296 0 0 1 14.507-9.245 5.934 5.934 0 0 1 2.277-.797 2.724 2.724 0 0 1 2.756 2.2 5.235 5.235 0 0 1-1.033 4.104c-2.817 4.228-8.205 6.307-10.904 10.803-1.144 1.907-1.748 4.718-.316 6.648a5.118 5.118 0 0 0 3.453 1.761c7.762 1.318 11.424 1.022 12.265 3.572a3.513 3.513 0 0 1-.951 3.376 6.765 6.765 0 0 1-3.787 1.737 59.987 59.987 0 0 1-12.583.516c-.413.008 0 .098-3.46 7.355a11.17 11.17 0 0 0-3.304 1.472s-29.856-.031-30.21-.015c.025-7.44.048-19.599.074-20.25Zm54.957 90.176a50.416 50.416 0 0 1-20.308-5.865c-9.696-5.241-21.136-14.195-26.127-17.626-.299-.206-.58.282-.284.485 5.194 3.563 8.248 6.133 15.982 11.374 10.331 6.994 18.408 11.31 31.123 12.225v.125s-55.515-.01-55.703-.006c0-3.227.28-69.57.282-70.06h29.453a7.031 7.031 0 0 0-1.805 2.136c-.546 1.064-.973 2.582-.175 3.466-.107.21-.197.428-.27.653-.628.42-1.13 1-1.458 1.68a8.578 8.578 0 0 0-.384 6.03c-1.823 3.38-3.66 6.754-5.507 10.12a.285.285 0 0 0 .317.414c12.693-4.173 25.235-.79 30.974 11.755a43.725 43.725 0 0 1 3.173 9.352c-4.414.889-8.475 1.619-12.92.691-7.072-1.56-18.246-7.28-26.854-10.517-.34-.127-.486.416-.154.543 10.977 4.115 22.673 10.665 30.357 10.953 7.065.265 19.907-3.683 32.143-6.249v25.599c0 .261-.05.598-.023.882a72.302 72.302 0 0 1-21.832 1.84Zm65.749.487H74.46v-.441c8.878-1.241 17.695-4.049 26.03-7.326.997-.388 1.981-.805 2.98-1.186a8.642 8.642 0 0 0 2.225-1.22 2.459 2.459 0 0 0 .497-3.508 5.274 5.274 0 0 0 2.806-.679 2.72 2.72 0 0 0 .655-.588l2.24 2.302a.879.879 0 0 0 1.572-.531 1.491 1.491 0 0 0-.372-.777c-.861-1.252-2.706-3.913-2.762-4a2.453 2.453 0 0 0 1.274-1.117h13.867l-.003 19.071Z"/><path fill="#000" d="M50.614 25.533c.246.268.642-.13.398-.397l-3.864-4.204 4-4.834c.23-.277-.167-.676-.398-.397l-4.173 5.04a.291.291 0 0 0 0 .397c5.398 5.796 3.709 4.038 4.037 4.395Zm18.433-4.601-3.863 4.205c-.245.265.154.664.398.396l4.037-4.392a.29.29 0 0 0 0-.398l-4.172-5.04c-.23-.279-.626.121-.397.398l3.997 4.83Zm-15.161 4.631c2.409-2.325 9.122-9.123 9.122-9.123a.281.281 0 0 0-.399-.397c-2.407 2.328-8.46 8.44-9.121 9.122a.282.282 0 0 0 .398.398Zm19.092 23.053H83.91a.281.281 0 0 0 0-.563H72.978a.282.282 0 0 0 0 .563Zm-14.254 0H69.42a.281.281 0 0 0 0-.563H58.724a.282.282 0 0 0 0 .563Zm.001 24.756a.281.281 0 0 0 0 .561h7.03a.281.281 0 0 0 0-.561h-7.03Zm19.212-18.641H67.334a.282.282 0 0 0 0 .562h10.603a.282.282 0 0 0 0-.562ZM15.942 42.697a19.444 19.444 0 0 1 3.656-5.495c.25-.262-.147-.66-.397-.397a19.588 19.588 0 0 0-3.744 5.61c-.145.326.34.613.485.282Zm14.15 2.743a16.802 16.802 0 0 1 4.588-6.329c.275-.235-.124-.63-.4-.397a17.077 17.077 0 0 0-4.727 6.577c-.14.335.404.48.539.15Zm-10.8 30.476a3.543 3.543 0 0 1 3.428.061 5.622 5.622 0 0 1 1.82 1.956c1.199 1.77 3.289 5.677 3.884 6.675a.28.28 0 0 0 .51-.078.282.282 0 0 0-.025-.206c-2.792-4.94-4.346-8.022-5.96-8.863a4.22 4.22 0 0 0-3.836-.094 4.067 4.067 0 0 0-1.83 4.38.272.272 0 0 0 .132.165.27.27 0 0 0 .21.024.295.295 0 0 0 .2-.339 3.473 3.473 0 0 1 1.467-3.68ZM98.21 118.41l9.373 4.751c.322.163.607-.322.284-.485l-9.373-4.752c-.322-.163-.606.322-.284.486Zm5.503 9.56a.268.268 0 0 0 .008-.109.271.271 0 0 0-.106-.187.276.276 0 0 0-.098-.05c-2.64-.377-5.292-.659-7.953-.844-.36-.025-.359.537 0 .563 2.609.181 5.21.458 7.803.827a.285.285 0 0 0 .346-.2ZM86.232 92.018l-5.23 4.45c-.276.235.123.631.397.398l5.23-4.45c.277-.235-.123-.632-.397-.398Zm-5.554 3.979a148.952 148.952 0 0 0 5.267-4.403c.273-.239-.126-.635-.398-.398a150.244 150.244 0 0 1-5.266 4.404c-.284.225.116.621.397.397Zm-13.034 42.945h-3.87a.281.281 0 0 0 0 .562h3.87a.276.276 0 0 0 .15-.053.278.278 0 0 0 .112-.281.285.285 0 0 0-.072-.141.284.284 0 0 0-.19-.087ZM6.68 74.819a.282.282 0 0 0-.27.272v4.561a.282.282 0 0 0 .562 0v-4.561a.282.282 0 0 0-.291-.272Zm129.15 38.462a5.393 5.393 0 0 0-3.651 5.134v23.716a.282.282 0 0 0 .563 0v-23.739a4.828 4.828 0 0 1 2.999-4.342 4.834 4.834 0 0 1 6.664 4.303c0 .26-.005.52 0 .781a.283.283 0 0 0 .281.267.282.282 0 0 0 .281-.267 7.03 7.03 0 0 0-.289-2.493 5.36 5.36 0 0 0-4.759-3.651 5.372 5.372 0 0 0-2.089.291Z"/><path fill="#000" d="M142.041 112.241a8.365 8.365 0 0 0-7.893-.608 7.258 7.258 0 0 0-4.152 6.583c-.005.829 0 23.467 0 23.467.031 2.615-1.693 5.511-5.643 5.623-3.347.094-13.588-.065-50.336 0a.273.273 0 0 0-.254.182.282.282 0 0 0 .254.38h50.312a6.06 6.06 0 0 0 5.704-3.598 6.075 6.075 0 0 0 .523-2.31v-22.361c-.07-1.119.026-2.243.284-3.334 2.232-7.167 14.251-6.314 13.745 2.865a.28.28 0 1 0 .561 0 7.456 7.456 0 0 0-3.105-6.889Z"/><path fill="#000" d="M129.207 113.382a10.375 10.375 0 0 0-1.517 5.629s-.006 22.167 0 22.55a2.928 2.928 0 0 1-.987 2.266 3.55 3.55 0 0 1-2.514.649H74.098a.276.276 0 0 0-.149.053.279.279 0 0 0-.112.281.279.279 0 0 0 .261.228h50.683a3.396 3.396 0 0 0 3.473-3.306v-23.056a9.332 9.332 0 0 1 2.829-6.711 9.338 9.338 0 0 1 6.785-2.643 9.346 9.346 0 0 1 8.537 6.213 9.352 9.352 0 0 1 .525 3.678.281.281 0 0 0 .562 0 10.039 10.039 0 0 0-2.934-7.596 9.903 9.903 0 0 0-15.351 1.765Z"/><path fill="#000" d="M130.621 108.558a12.04 12.04 0 0 0-5.088 9.871v2.85c0 .074.03.146.082.199a.283.283 0 0 0 .397 0 .282.282 0 0 0 .082-.199 25.439 25.439 0 0 1 .323-5.601 11.481 11.481 0 0 1 19.805-4.844 11.48 11.48 0 0 1 2.83 7.676v.583a.283.283 0 0 0 .281.267.282.282 0 0 0 .281-.267 12.058 12.058 0 0 0-12.692-12.723 12.068 12.068 0 0 0-6.301 2.188Zm-28.462-37.402c.125-.17.123.373.083-5.112a.284.284 0 0 0-.281-.28h-4.915a.286.286 0 0 0-.281.28v4.918a.284.284 0 0 0 .281.282c5.448.036 4.974.03 5.113-.088Zm-.479-.479h-4.353v-4.352h4.353v4.352Zm17.764 1.379a5.889 5.889 0 0 0 5.782-7.028 5.874 5.874 0 0 0-1.608-3.015 5.884 5.884 0 0 0-9.608 6.403 5.868 5.868 0 0 0 3.182 3.19c.714.296 1.479.45 2.252.45Zm-1.873-10.895a5.34 5.34 0 1 1 3.731 10.007 5.34 5.34 0 0 1-3.731-10.007Zm-2.383 43.929a4.507 4.507 0 0 1 1.961-.289 5.898 5.898 0 0 0 2.712-.302 2.29 2.29 0 0 0 1.289-1.484 1.879 1.879 0 0 0-.748-1.855c-1.316-1.005-2.939-.56-4.45-.709-.667-.067-1.312-.249-1.462-.974a1.904 1.904 0 0 1 .473-1.758 3.043 3.043 0 0 1 1.876-.74 17.7 17.7 0 0 1 3.643.203c.358.045.355-.519 0-.561a12.694 12.694 0 0 0-4.68-.026 2.839 2.839 0 0 0-1.612 1.2 2.653 2.653 0 0 0-.23 1.887c.391 1.632 2.541 1.349 3.806 1.344a3.935 3.935 0 0 1 2.066.421 1.335 1.335 0 0 1 .673 1.716c-.584 1.155-1.918 1.136-3.131 1.105a4.139 4.139 0 0 0-3.107.758 2.282 2.282 0 0 0-.681 1.745 2.262 2.262 0 0 0 .863 1.663 3.583 3.583 0 0 0 1.964.595c.671-.007 1.343.027 2.01.103a2.48 2.48 0 0 1 1.535.767c.69.979-.164 2.21-1.448 2.358-1.541.199-3.1.217-4.645.056-.359-.039-.357.524 0 .562 1.771.188 3.56.124 5.313-.191 1.265-.429 2.057-1.887 1.288-3.038a2.661 2.661 0 0 0-1.467-.957 7.097 7.097 0 0 0-1.931-.203 4.59 4.59 0 0 1-2.048-.354 1.686 1.686 0 0 1-.845-1.81 1.677 1.677 0 0 1 1.013-1.232ZM99.63 48.42c.097.055-.307.037 6.684.037a.291.291 0 0 0 .242-.424l-3.274-5.619a.284.284 0 0 0-.39-.096c-.103.063.13-.278-3.37 5.715a.285.285 0 0 0 .108.387Zm3.409-5.306 2.785 4.78h-5.57c.117-.2 2.724-4.674 2.785-4.783v.003Zm2.93-17.75a1.655 1.655 0 0 1 1.696 1.712v2.976a.282.282 0 0 0 .281.282h4.969a.285.285 0 0 0 .282-.282c.033-4.553.066-4.924-.266-6.11a5.879 5.879 0 0 0-5.593-4.11h-1.369a.284.284 0 0 0-.281.281v4.967a.28.28 0 0 0 .281.284Zm.281-4.97h1.09a5.3 5.3 0 0 1 5.016 3.555 5.3 5.3 0 0 1 .278 2.152v3.67h-4.407v-1.787a3.543 3.543 0 0 0-.453-2.337 2.183 2.183 0 0 0-1.524-.83v-4.422Zm1.486 79.156a.278.278 0 0 0 .272-.271V87.797h7.736a.291.291 0 0 0 .274-.306c-.008-.183-2.24-3.917-6.863-11.843a.276.276 0 0 0-.242-.137.287.287 0 0 0-.244.137l-6.828 11.725a.285.285 0 0 0 .107.384c.101.056-.215.036 5.5.036v11.481a.284.284 0 0 0 .288.276Zm-5.166-12.315 6.343-10.886 6.341 10.886h-7.246v-1.778a.282.282 0 0 0-.475-.19.276.276 0 0 0-.087.19v1.778h-4.876Zm1.983-15.462V59.611a.28.28 0 0 0-.088-.19.28.28 0 0 0-.474.19v12.162a.283.283 0 0 0 .281.267.28.28 0 0 0 .281-.267Zm4.423-12.439V41.917a.283.283 0 0 0-.052-.149.286.286 0 0 0-.282-.112.28.28 0 0 0-.228.26v17.418a.285.285 0 0 0 .282.267.281.281 0 0 0 .28-.267Zm3.045-8.431v-13.27a.284.284 0 0 0-.281-.266.284.284 0 0 0-.282.267v13.269a.294.294 0 0 0 .053.148.287.287 0 0 0 .282.113.282.282 0 0 0 .228-.261Zm-40.803 61.669a51.62 51.62 0 0 1 11.877-2.901c.355-.043.359-.606 0-.563a51.59 51.59 0 0 0-12.025 2.922c-.338.126-.192.671.149.542Zm11.212-5.932a55.903 55.903 0 0 0-12.138 3.39c-.33.135-.185.679.154.543a56.088 56.088 0 0 1 12.138-3.391c.352-.056.203-.598-.153-.542ZM11.369 28.978c.204.294.69.013.485-.284l-4.527-6.567c-.204-.296-.69-.015-.486.284l4.528 6.566Zm3.681-.518c.077.353.622.203.543-.15l-2.149-9.692c-.076-.352-.621-.204-.542.154.238 1.086 1.887 8.509 2.148 9.687Z"/></svg>